<?xml version="1.0" encoding="UTF-8" standalone="no"?>
<svg
   xmlns:dc="http://purl.org/dc/elements/1.1/"
   xmlns:cc="http://creativecommons.org/ns#"
   xmlns:rdf="http://www.w3.org/1999/02/22-rdf-syntax-ns#"
   xmlns:svg="http://www.w3.org/2000/svg"
   xmlns="http://www.w3.org/2000/svg"
   id="svg7233"
   version="1.1"
   viewBox="0 0 196.50856 79.505654"
   height="79.505653mm"
   width="196.50856mm">
  <defs
     id="defs7227" />
  <metadata
     id="metadata7230">
    <rdf:RDF>
      <cc:Work
         rdf:about="">
        <dc:format>image/svg+xml</dc:format>
        <dc:type
           rdf:resource="http://purl.org/dc/dcmitype/StillImage" />
        <dc:title></dc:title>
      </cc:Work>
    </rdf:RDF>
  </metadata>
  <g
     transform="translate(-6.0810143,-110.60288)"
     id="layer1">
    <path
       id="path4264"
       d="m 12.069687,154.55635 c -0.117453,-0.83796 0.08048,-1.60106 0.539103,-2.08088 0.314457,-0.32929 0.408353,-0.37468 0.873758,-0.42675 0.287465,-0.0314 0.868067,0.0946 1.29028,0.27948 0.685274,0.30002 0.83437,0.45056 1.386016,1.39962 0.522726,0.90234 0.605706,1.18278 0.577445,1.82816 -0.06896,1.29468 -0.845068,2.00962 -2.015873,1.8572 -1.178046,-0.15364 -2.467421,-1.54364 -2.6513,-2.85834 z m 3.739002,7.14824 c 0.02794,-1.86002 1.312127,-2.67081 2.892728,-1.82625 1.845163,0.98563 2.281655,4.23831 0.675702,5.02374 -0.582133,0.28492 -1.528762,0.11701 -2.151047,-0.381 -0.687278,-0.55024 -1.428898,-2.02463 -1.417093,-2.81662 z m 4.817681,8.2443 c -0.466235,-1.44706 -0.100571,-2.87722 0.855257,-3.34476 1.093763,-0.5342 2.344114,0.22224 2.965091,1.79449 0.435913,1.10196 0.447342,1.92494 0.03859,2.69479 -0.549353,1.03553 -1.656466,1.25545 -2.627434,0.52164 -0.504462,-0.38137 -1.0593,-1.13193 -1.231501,-1.66616 z M 9.2404125,146.44673 c -0.011366,-1.36822 0.7231917,-2.15134 1.8567065,-1.98015 0.788704,0.11897 1.285067,0.38838 1.899436,1.03053 0.994808,1.03976 1.331444,2.70292 0.726029,3.56351 -0.276913,0.39263 -0.941557,0.6648 -1.497805,0.61446 -0.976414,-0.0898 -1.720568,-0.66286 -2.3784871,-1.83185 -0.3316194,-0.58913 -0.6003129,-1.21892 -0.6040678,-1.39628 z m 16.4393335,29.29662 c -0.255487,-0.87827 -0.0353,-2.34102 0.42348,-2.80765 0.508186,-0.51697 1.133765,-0.63285 1.802144,-0.33368 0.51608,0.23088 0.661847,0.41034 1.191552,1.46381 0.505006,0.9874 0.594332,1.33481 0.546304,1.97098 -0.05826,0.78309 -0.533854,1.66469 -1.028269,1.90644 -1.07201,0.52394 -2.440389,-0.50141 -2.935214,-2.19992 z M 7.5838602,138.77777 c -0.04982,-0.58553 0.3361973,-1.3092 0.8261215,-1.54887 1.9283513,-0.94246 4.9037643,2.70061 3.5842233,4.38871 -0.915279,1.17106 -3.063033,0.31705 -3.9865626,-1.58549 -0.2211476,-0.43107 -0.4032029,-1.00003 -0.4236656,-1.25441 z m 23.3129828,41.15122 c -0.09418,-1.31279 0.533345,-2.56835 1.315774,-2.63135 0.186727,-0.0143 0.612529,0.0985 0.947455,0.25198 0.552011,0.25346 0.654176,0.38408 1.098239,1.4058 0.550316,1.26468 0.583042,2.23744 0.10511,3.09059 -0.74984,1.33784 -2.190937,0.98332 -3.038639,-0.7456 -0.220133,-0.42892 -0.403552,-1.05057 -0.428022,-1.37138 z M 7.0831466,132.01739 c -0.044003,-1.22893 0.5944894,-1.79441 1.7822659,-1.57886 0.9900754,0.17955 1.7535675,0.84433 2.3907975,2.08181 0.798491,1.55974 0.502872,2.52146 -0.833587,2.68244 -1.2437894,0.14957 -3.2898008,-1.8022 -3.3394764,-3.18539 z m 11.4540734,21.1868 c -0.159013,-0.71787 -0.0051,-1.39405 0.404771,-1.77301 1.301462,-1.20322 3.758145,1.62863 2.873918,3.31241 -0.702702,1.33858 -2.863695,0.3238 -3.278689,-1.5394 z m 2.908039,5.47749 c -0.0226,-0.76868 0.372296,-1.40733 0.984758,-1.59178 1.435037,-0.43212 3.031922,2.19057 2.245666,3.68785 -0.213938,0.40782 -0.769542,0.67236 -1.244064,0.59425 -0.939928,-0.15698 -1.951427,-1.5265 -1.985886,-2.68931 z m 3.789145,6.54265 c -0.535631,-1.59324 0.05232,-2.78976 1.280777,-2.60677 1.816449,0.27061 2.523491,3.86993 0.844871,4.2997 -0.679748,0.17432 -1.79712,-0.71561 -2.125648,-1.69293 z m -9.003646,-18.71561 c -0.01167,-0.37095 0.105274,-0.75245 0.298593,-0.97869 0.299168,-0.34946 0.348088,-0.37081 0.854357,-0.37545 1.220121,-0.0108 2.600371,1.78141 2.354786,3.05737 -0.104075,0.54135 -0.196784,0.67673 -0.598114,0.87292 -1.180154,0.57856 -2.858337,-0.90814 -2.909664,-2.57623 z m 20.076379,37.52695 c -0.19481,-0.95418 -0.126808,-1.83281 0.18555,-2.40672 0.361506,-0.66366 0.83072,-0.8785 1.519606,-0.69664 0.430696,0.11388 0.559362,0.27058 1.105777,1.34499 0.700385,1.36838 0.774668,2.37725 0.255552,3.30381 -0.4298,0.76675 -0.926162,0.90271 -1.803741,0.49385 -0.412203,-0.192 -1.119141,-1.33391 -1.263957,-2.03986 z m -7.289003,-14.9718 c 0.02654,-0.88742 0.272134,-1.35945 0.82141,-1.57817 1.279581,-0.50895 2.818163,1.90269 2.200534,3.44992 -0.223132,0.55875 -0.907526,0.87915 -1.528906,0.71553 -0.690006,-0.18142 -1.521797,-1.62319 -1.494242,-2.58686 z M 14.813051,140.70585 c -0.04603,-0.7321 0.102908,-1.06564 0.580782,-1.29931 1.40098,-0.68628 3.510757,1.79649 2.816701,3.31412 -0.13345,0.29189 -0.274775,0.40497 -0.647177,0.51698 -1.033162,0.31109 -2.665708,-1.19179 -2.750332,-2.53185 z M 7.6482256,126.06161 c -0.1137921,-0.92384 0.5050271,-1.61522 1.354712,-1.51338 1.0680874,0.1283 2.5958574,1.48227 2.9357694,2.60192 0.362575,1.19418 -0.01992,1.97004 -0.996881,2.02113 -1.2855916,0.068 -3.1144101,-1.65932 -3.2936004,-3.10967 z m 25.6970374,48.00755 c -0.287104,-1.26921 -0.06623,-2.30877 0.554196,-2.61212 0.776275,-0.3807 1.91041,0.6322 2.180432,1.9458 0.25288,1.22946 -0.202106,2.29459 -1.005205,2.35329 -0.532219,0.0384 -1.567948,-0.97124 -1.729423,-1.68697 z M 14.229974,134.75053 c 0.05844,-0.59709 0.332033,-0.86369 0.918214,-0.89451 1.338453,-0.0699 2.888243,1.97875 2.462479,3.25551 -0.244714,0.7339 -1.200493,0.79097 -2.113496,0.12669 -0.651739,-0.47432 -1.333041,-1.81196 -1.271392,-2.48511 z m 9.011733,17.11184 c -0.144857,-1.48809 1.032747,-1.86858 2.105867,-0.68018 1.160075,1.28503 0.599762,3.07057 -0.790604,2.51899 -0.523549,-0.20753 -1.255837,-1.23138 -1.315206,-1.83869 z m 2.389158,4.4555 c 0.06941,-1.47208 1.558568,-1.48019 2.30954,-0.0124 1.077432,2.10567 -0.660636,3.32585 -1.871043,1.31347 -0.306514,-0.51147 -0.458141,-0.9477 -0.438382,-1.30116 z m 2.902392,5.04813 c -0.403033,-1.5154 0.713575,-2.26981 1.79929,-1.21586 0.824341,0.79994 0.958305,2.43758 0.229092,2.79426 -0.411717,0.20111 -0.964635,0.0771 -1.287693,-0.28932 -0.530456,-0.60137 -0.581774,-0.68772 -0.739683,-1.28956 z m 12.718601,24.48908 c -0.110274,-0.68751 0.03518,-1.81922 0.282574,-2.20011 0.31554,-0.48565 0.919145,-0.64544 1.454392,-0.38475 0.549769,0.26742 1.231171,1.47857 1.38912,2.46831 0.113207,0.7108 -0.05202,1.81128 -0.331304,2.20694 -0.263265,0.37391 -0.938026,0.53219 -1.354909,0.3181 -0.436708,-0.2238 -1.32836,-1.71606 -1.438658,-2.40897 z M 21.450252,146.45966 c 0.135949,-0.72512 0.714099,-0.98154 1.429207,-0.63403 0.713942,0.34689 1.431776,1.70376 1.271491,2.4021 -0.180414,0.78445 -0.935577,0.9464 -1.728458,0.3707 -0.559619,-0.40622 -1.08187,-1.55478 -0.973216,-2.13847 z M 9.1223361,121.06135 c -0.082325,-0.68854 0.2302111,-1.1613 0.8343991,-1.26293 1.3238578,-0.22233 3.4991658,1.9977 3.3554608,3.42478 -0.08321,0.82458 -0.44512,1.09212 -1.301457,0.96186 -1.131881,-0.17212 -2.7444901,-1.91577 -2.8884322,-3.12378 z M 31.611762,165.0972 c -0.174812,-1.91127 1.596686,-2.05454 2.283564,-0.18456 0.46942,1.27992 -0.06939,2.35857 -1.020929,2.04206 -0.459393,-0.15271 -1.20743,-1.25346 -1.262637,-1.85752 z m 5.767809,11.22613 c -0.09117,-0.77116 0.233708,-1.60993 0.714801,-1.84518 0.443056,-0.21591 1.307614,0.30459 1.673156,1.00796 0.35816,0.69884 0.501144,1.9077 0.282666,2.45771 -0.238815,0.60046 -0.821054,0.83083 -1.394566,0.55133 -0.488614,-0.23784 -1.18815,-1.42867 -1.276584,-2.17212 z M 20.24094,141.71849 c 0.188887,-1.00794 0.97185,-1.0666 1.990656,-0.14906 0.945683,0.85156 0.917639,2.47854 -0.04453,2.59432 -0.881201,0.10598 -2.130501,-1.46361 -1.946129,-2.44522 z m -5.782714,-11.38135 c -0.08595,-0.46507 0.148921,-1.08117 0.472892,-1.23954 0.326055,-0.16064 1.073641,0.0378 1.603592,0.42337 0.94051,0.68485 1.572082,2.45016 1.075589,3.00616 -0.472503,0.52891 -1.58775,0.19162 -2.378583,-0.7199 -0.565797,-0.65242 -0.652296,-0.81623 -0.775632,-1.46898 z m 20.541216,38.30589 c -0.102182,-0.65774 0.02758,-1.37441 0.286794,-1.57572 0.426432,-0.33137 0.803705,-0.25152 1.328832,0.28128 0.983476,0.99765 0.879435,2.96191 -0.156097,2.94942 -0.56934,-0.007 -1.338543,-0.8791 -1.459529,-1.65498 z m -15.358888,-31.4435 c 0.112569,-0.58 0.747936,-0.80193 1.395492,-0.48716 1.123838,0.54605 1.699067,2.58576 0.815978,2.89304 -0.556106,0.19377 -1.446728,-0.40308 -1.882516,-1.26097 -0.221183,-0.4311 -0.365949,-0.94791 -0.329077,-1.1448 z m 9.184904,17.5683 c -0.0193,-0.96646 0.693639,-1.26821 1.453003,-0.61508 0.711358,0.61163 0.865305,2.00364 0.257033,2.30106 -0.629657,0.30736 -1.691478,-0.73911 -1.710025,-1.68595 z m -1.944125,-4.16054 c 0.240271,-1.40573 2.161061,-0.28361 2.144182,1.25248 -0.0063,0.57445 -0.605995,0.93673 -1.133062,0.68473 -0.403031,-0.19338 -1.085409,-1.50022 -1.014347,-1.93498 z m 4.246697,8.0281 c -0.241162,-1.49149 1.006684,-1.73923 1.733911,-0.34436 0.400701,0.78147 0.362333,1.44557 -0.113951,1.73663 -0.539643,0.32999 -1.471344,-0.47049 -1.61996,-1.39227 z m -5.761576,-11.71424 c -0.02978,-0.9695 0.895877,-1.14986 1.61215,-0.31437 0.742401,0.86579 0.72403,2.08648 -0.03153,2.12774 -0.620465,0.0341 -1.556475,-1.04057 -1.580626,-1.81342 z m 16.046885,31.00908 c 0.02118,-1.31813 0.782212,-1.84256 1.636504,-1.12799 1.081457,0.90456 1.25296,3.35418 0.26892,3.83547 -0.0528,0.0249 -0.31393,-0.0367 -0.584011,-0.13729 -0.664325,-0.24734 -1.337632,-1.55727 -1.316247,-2.57264 z m 4.381174,8.36037 c -0.08692,-1.20047 0.252889,-2.04456 0.876538,-2.1773 1.220454,-0.25992 2.488499,2.6426 1.869209,4.2784 -0.24407,0.64416 -0.845852,0.89766 -1.379768,0.58048 -0.519694,-0.30788 -1.306005,-1.85199 -1.371076,-2.6798 z m -7.472495,-15.34466 c -0.268068,-1.86287 1.265054,-2.02587 1.979915,-0.2104 0.34578,0.87845 0.238776,1.67617 -0.266392,1.98631 -0.618601,0.37967 -1.541019,-0.57647 -1.713522,-1.7759 z M 15.418249,125.78592 c 0.03449,-0.24057 0.120338,-0.50247 0.191009,-0.58165 0.624229,-0.69896 2.498955,0.50315 2.913653,1.86831 0.37925,1.2488 -0.270943,1.854 -1.413892,1.31647 -0.811345,-0.3819 -1.792333,-1.89193 -1.69077,-2.60313 z m 18.222983,35.57046 c 0.07277,-0.60763 0.295436,-0.80934 0.776134,-0.70284 0.591942,0.13088 1.094579,0.81165 1.153154,1.56093 0.06324,0.81086 -0.239526,1.18682 -0.850665,1.05563 -0.529417,-0.11383 -1.160229,-1.2331 -1.079311,-1.91347 z m -9.258475,-18.41183 c 0.03219,-1.01175 1.315661,-0.85592 1.870735,0.22755 0.324697,0.63539 0.295939,1.44417 -0.05866,1.6176 -0.628995,0.30705 -1.841536,-0.92713 -1.812075,-1.84515 z M 11.364659,117.20297 c -0.11725,-0.93932 0.584012,-1.3031 1.624036,-0.84183 0.944011,0.41873 1.592442,1.11909 2.043224,2.2073 0.315353,0.76053 0.347309,1.00801 0.167848,1.31307 -0.29574,0.50379 -0.771275,0.60895 -1.456982,0.3222 -1.107432,-0.4633 -2.239052,-1.89126 -2.377911,-3.0003 z m 8.349552,16.2012 c 0.0072,-0.24701 0.114905,-0.56309 0.242796,-0.70395 0.669491,-0.7383 2.45281,0.86057 2.329188,2.08842 -0.06618,0.65614 -0.281109,0.83572 -0.866888,0.7236 -0.865387,-0.16563 -1.724941,-1.22863 -1.705108,-2.1081 z m 16.593583,30.73972 c 0.06052,-0.61961 0.299697,-0.83666 0.825408,-0.74879 0.894274,0.14928 1.44307,2.35367 0.653004,2.62387 -0.696398,0.23704 -1.575773,-0.87744 -1.478412,-1.87508 z M 23.852531,139.173 c 0.209392,-0.95293 1.255591,-0.68607 1.848759,0.47113 0.501692,0.97893 0.128906,1.71486 -0.715065,1.41215 -0.482016,-0.17298 -1.234695,-1.4234 -1.134096,-1.88309 z m 5.936421,11.30607 c -0.04909,-0.40781 0.09546,-0.86041 0.312078,-0.96634 0.241654,-0.12077 0.899171,0.41534 1.151497,0.93633 0.255157,0.54021 0.2437,1.11268 -0.03585,1.24937 -0.460703,0.22424 -1.341421,-0.52731 -1.427722,-1.21936 z m 1.513602,2.90725 c -0.02973,-0.54892 0.186621,-0.75108 0.685688,-0.64048 0.802019,0.1775 1.302434,1.8405 0.649922,2.15952 -0.238205,0.11919 -0.971063,-0.36825 -1.153394,-0.7649 -0.09859,-0.1865 -0.169777,-0.53112 -0.182095,-0.75411 z m 1.844127,2.79865 c 0.03223,-0.80575 1.022297,-0.68083 1.46531,0.18493 0.242608,0.46905 0.145918,1.27073 -0.168011,1.42428 -0.511854,0.25172 -1.33126,-0.76529 -1.297299,-1.60921 z m 8.38293,16.61317 c 0.05035,-1.21161 0.280085,-1.61103 0.885088,-1.53832 0.462978,0.0555 1.353638,1.7759 1.238781,2.37372 -0.234409,1.14973 -1.017539,1.194 -1.680666,0.0948 -0.246535,-0.40305 -0.445456,-0.82197 -0.431583,-0.93596 z M 28.502448,146.75031 c 0.09511,-0.35449 0.460659,-0.51207 0.818954,-0.35164 0.341156,0.15229 0.923712,1.15261 0.920823,1.5824 -0.0022,0.36169 -0.512056,0.63481 -0.878651,0.47197 -0.344115,-0.15336 -0.953383,-1.35706 -0.868363,-1.69725 z m 16.640723,32.66981 c -0.06388,-0.55062 0.125338,-1.54316 0.326373,-1.71337 0.90389,-0.76424 2.249883,1.10121 2.007536,2.78196 -0.130218,0.90349 -0.517327,1.20344 -1.163751,0.90207 -0.38844,-0.18108 -1.102107,-1.38323 -1.169614,-1.97091 z M 20.33052,130.01783 c -0.01325,-0.46946 0.234818,-0.87518 0.549251,-0.89806 0.522338,-0.0378 1.26554,0.55505 1.666461,1.32991 0.416723,0.81539 0.386497,1.36817 -0.09883,1.60559 -0.596712,0.29181 -2.091252,-1.14659 -2.116878,-2.03744 z m 14.860364,28.9982 c -0.02846,-0.50909 0.306668,-0.82992 0.741816,-0.71063 0.397919,0.109 0.926242,1.1258 0.842934,1.59885 -0.221571,1.14049 -1.502862,0.41396 -1.5753,-0.89278 z m 3.813931,7.38128 c 0.02921,-0.70887 0.227414,-0.91828 0.759908,-0.80275 0.90542,0.19665 1.44365,2.43739 0.627549,2.61093 -0.625947,0.13313 -1.424904,-0.90759 -1.387457,-1.80818 z M 27.697762,144.24977 c 0.0047,-0.0733 -0.01423,-0.27759 -0.04016,-0.4536 -0.07093,-0.47571 0.297253,-0.71023 0.769078,-0.49032 0.725266,0.33832 1.175703,1.7683 0.639647,2.03046 -0.345053,0.16962 -1.391939,-0.66228 -1.368583,-1.08665 z M 17.004939,122.62081 c 0.0064,-0.58397 0.500035,-0.92288 1.068493,-0.73388 1.42243,0.47313 2.550405,2.73123 1.640636,3.28617 -0.429638,0.26156 -0.897023,0.10785 -1.630934,-0.53839 -0.664398,-0.58547 -1.08626,-1.37236 -1.080305,-2.01294 z m 6.796575,13.36329 c -0.02867,-0.53406 0.163486,-0.72611 0.666519,-0.66582 0.765471,0.0918 1.656214,1.57581 1.304028,2.17448 -0.191733,0.32679 -0.731618,0.29845 -1.185459,-0.0597 -0.472984,-0.37418 -0.755736,-0.89552 -0.785744,-1.44877 z m 26.116641,50.71305 c -0.207985,-0.85128 -0.190219,-1.52408 0.0573,-2.12885 0.370743,-0.90635 0.889211,-0.9409 1.613492,-0.1072 1.097762,1.26293 1.168376,4.00814 0.109047,4.23373 -0.599194,0.12754 -1.509852,-0.89467 -1.779834,-1.99767 z M 37.36845,161.35534 c -0.0074,-0.22007 0.0631,-0.50698 0.154843,-0.63727 0.134461,-0.19018 0.24591,-0.2106 0.578437,-0.0999 0.858038,0.28539 1.071127,2.23058 0.232642,2.13066 -0.371395,-0.0447 -0.950249,-0.87981 -0.966027,-1.3935 z M 27.178288,140.63459 c 0.185325,-0.69133 0.959591,-0.44329 1.4206,0.45797 0.292438,0.57455 0.300828,1.07384 0.01725,1.21251 -0.503702,0.24786 -1.608331,-1.03593 -1.437849,-1.67048 z m 4.810624,9.02792 c 0.05484,-0.66187 0.738197,-0.50383 1.129399,0.26072 0.246063,0.47636 0.240346,0.98816 -0.0086,1.10987 -0.411029,0.20077 -1.173689,-0.73154 -1.120845,-1.37059 z m 1.248432,2.57622 c -0.02602,-0.27133 0.50038,-0.54383 0.744956,-0.38703 0.289548,0.18721 0.663441,1.02486 0.59743,1.3317 -0.07622,0.34173 -0.430871,0.53873 -0.679635,0.37864 -0.202225,-0.13089 -0.631262,-0.9872 -0.654985,-1.32722 z M 14.167757,114.28579 c 0.194374,-1.3805 2.263611,-0.51519 3.262058,1.36457 0.48756,0.90663 0.510207,1.70068 0.06564,1.91813 -0.347233,0.17066 -1.081581,-0.0191 -1.656052,-0.42586 -0.751709,-0.53236 -1.757196,-2.25032 -1.672478,-2.85645 z m 20.586518,40.39767 c 0.03006,-0.35327 0.399332,-0.58209 0.663518,-0.41239 0.09952,0.0643 0.296523,0.3439 0.438053,0.6205 0.306633,0.59716 0.310025,0.88897 0.01342,1.034 -0.489058,0.23764 -1.175338,-0.52628 -1.11632,-1.24247 z m 6.906187,13.56355 c -0.0493,-0.54578 0.08377,-1.01662 0.322925,-1.13347 0.791682,-0.388 1.827164,1.76168 1.192625,2.47292 -0.416064,0.46574 -1.430941,-0.43223 -1.514539,-1.33993 z M 31.041624,146.83703 c 0.300882,-0.42677 0.658865,-0.26277 1.035792,0.47363 0.391888,0.77025 0.279682,1.20296 -0.276494,1.05327 -0.464124,-0.12475 -0.994957,-1.19249 -0.757149,-1.52791 z m 13.529525,26.49157 c 0.01204,-0.29107 0.120822,-0.6543 0.240171,-0.80633 0.778482,-0.99228 2.299327,1.56572 1.584,2.66542 -0.198199,0.30492 -0.232097,0.32129 -0.575649,0.28185 -0.498093,-0.0595 -1.280914,-1.40094 -1.248293,-2.13897 z M 24.210337,132.91633 c 0.06514,-0.78705 1.187664,-0.49838 1.698504,0.43541 0.426967,0.77835 0.434898,1.2202 0.03095,1.4177 -0.218978,0.11009 -0.460762,0.0794 -0.742486,-0.088 -0.459179,-0.27214 -1.026465,-1.28678 -0.987083,-1.76504 z m 12.275169,23.80671 c 0.136277,-0.31637 0.140732,-0.31883 0.481709,-0.23415 0.462645,0.11352 0.867925,0.94191 0.692701,1.41451 -0.133542,0.35932 -0.154,0.37248 -0.452922,0.29014 -0.426091,-0.11676 -0.892762,-1.06904 -0.719288,-1.47081 z m 3.084104,6.14082 c 0.119939,-0.70753 0.854283,-0.59446 1.257408,0.19353 0.262769,0.51174 0.254326,1.37572 -0.01376,1.50683 -0.466989,0.22721 -1.363136,-0.9976 -1.243652,-1.70036 z M 21.447375,127.12042 c -0.03549,-1.21313 1.394226,-0.84526 2.128621,0.54777 0.621144,1.16716 0.197893,1.86336 -0.817965,1.35621 -0.573366,-0.28603 -1.294116,-1.33295 -1.310656,-1.90398 z m 5.580953,11.06061 c -0.02407,-0.14378 0.03865,-0.37742 0.137563,-0.51757 0.245758,-0.34773 0.694515,-0.22066 1.154601,0.32939 0.646755,0.77254 0.363258,1.93457 -0.35795,1.46587 -0.356083,-0.23147 -0.881911,-0.95056 -0.934156,-1.27772 z m 3.231307,6.14926 c 0.100682,-0.37539 0.285409,-0.42229 0.696793,-0.17606 0.410114,0.24554 0.749826,1.13567 0.555543,1.46077 -0.331966,0.55685 -1.440697,-0.58113 -1.251716,-1.28501 z m 18.234768,35.23337 c -0.156074,-0.68416 -0.07869,-1.27668 0.21937,-1.69983 0.17067,-0.24208 0.248773,-0.26458 0.621324,-0.18256 0.880599,0.19508 1.675115,2.58924 1.134887,3.42033 -0.315187,0.48513 -0.662804,0.50471 -1.150069,0.0665 -0.477745,-0.43033 -0.623788,-0.71426 -0.821284,-1.60647 z m -10.26143,-20.96377 c 0.104314,-0.25847 0.176423,-0.30868 0.407062,-0.28209 0.388701,0.0443 0.937454,1.15317 0.758933,1.53245 -0.132336,0.28013 -0.154303,0.29084 -0.441219,0.21503 -0.407827,-0.11168 -0.88049,-1.06845 -0.72217,-1.46206 z m -8.428772,-16.79718 c 0.123399,-0.29906 0.138863,-0.30496 0.518509,-0.1926 0.78064,0.23174 1.110483,1.75357 0.360855,1.66888 -0.403983,-0.0461 -1.033308,-1.10286 -0.878178,-1.47726 z M 19.050049,120.11048 c 0.03414,-0.40331 0.377787,-0.64976 0.805689,-0.5785 0.59642,0.0996 1.300485,0.76969 1.76715,1.68195 0.352311,0.68642 0.402585,0.9341 0.25812,1.25021 -0.177679,0.38895 -0.185728,0.39346 -0.6192,0.36049 -0.241509,-0.0186 -0.666647,-0.2154 -0.944906,-0.43838 -0.543307,-0.43538 -1.307119,-1.80672 -1.266566,-2.27649 z m 22.688439,44.16397 c 0.124368,-0.90465 0.839183,-0.70631 1.255526,0.34836 0.298599,0.75776 0.142688,1.3412 -0.343403,1.28302 -0.392549,-0.0473 -0.98429,-1.10592 -0.912323,-1.63129 z m 2.454257,5.01022 c -0.149447,-0.92724 0.282626,-1.49627 0.854309,-1.12463 0.922993,0.59992 1.042099,2.5637 0.148509,2.44412 -0.370581,-0.0497 -0.912611,-0.76319 -1.002821,-1.31949 z M 27.346802,135.54448 c 0.01814,-0.16966 0.138682,-0.36032 0.265427,-0.42231 0.524855,-0.25786 1.533923,1.04143 1.285713,1.65514 -0.117377,0.29025 -0.154624,0.31171 -0.477164,0.27514 -0.415379,-0.0471 -1.126147,-1.0454 -1.073976,-1.50797 z m 12.709541,24.63495 c 0.13585,-0.31654 0.140441,-0.31871 0.481422,-0.23404 0.405889,0.0993 0.683711,0.57725 0.672894,1.15487 -0.0098,0.44373 -0.308829,0.69083 -0.605387,0.49971 -0.346465,-0.22373 -0.685107,-1.0997 -0.54692,-1.42023 z M 25.023214,130.66609 c -0.01857,-0.47617 0.408631,-0.6778 0.925473,-0.43713 0.812134,0.37889 1.371643,2.0296 0.74134,2.18778 -0.556943,0.14021 -1.638795,-0.99645 -1.667218,-1.75128 z m 4.668706,9.07769 c 0.08621,-0.76681 0.70018,-0.61434 1.162149,0.28881 0.281939,0.55232 0.128577,0.99076 -0.315531,0.89809 -0.349314,-0.073 -0.886915,-0.82694 -0.846676,-1.18688 z m 17.662115,34.06787 c -0.0846,-0.66735 0.02334,-1.01176 0.369761,-1.18124 1.014645,-0.49684 2.047192,2.32324 1.082515,2.95618 -0.490975,0.32171 -1.314145,-0.68462 -1.452191,-1.775 z m 5.796022,10.75096 c -0.07408,-0.92031 0.108334,-1.50225 0.536665,-1.71165 0.481308,-0.23398 0.937852,0.11468 1.440554,1.10324 0.88577,1.73261 0.441479,3.7626 -0.698614,3.21611 -0.451373,-0.21622 -1.210518,-1.76435 -1.276713,-2.60859 z M 23.109666,125.29307 c -0.3576,-1.38427 0.923761,-1.31875 1.806284,0.0924 0.530302,0.84851 0.576771,1.44997 0.11908,1.6094 -0.637031,0.22115 -1.662565,-0.68547 -1.925359,-1.70176 z m 18.793018,35.99725 0.175884,-0.38494 0.391804,0.28851 c 0.392787,0.28911 0.568985,0.81449 0.454005,1.35355 -0.05865,0.2734 -0.06827,0.27829 -0.375616,0.19854 -0.474418,-0.1299 -0.854711,-0.98713 -0.643069,-1.4499 z m 1.923749,4.05059 c -0.04761,-0.87587 0.715647,-0.91034 1.154825,-0.0521 0.261707,0.50949 0.219057,1.29236 -0.077,1.43721 -0.413295,0.20186 -1.035348,-0.59739 -1.077825,-1.38502 z M 17.366125,112.65685 c 0.109899,-0.47776 0.262239,-0.57168 0.818699,-0.50499 0.968962,0.11657 2.523251,1.97062 2.517359,3.00333 -0.0058,0.97484 -0.977525,1.01543 -2.023628,0.0844 -0.725988,-0.64594 -1.436559,-2.04405 -1.319598,-2.57901 z m 10.623374,21.04682 c -0.07034,-0.47806 0.370074,-0.76932 0.770255,-0.50877 0.332824,0.21565 0.825399,1.08462 0.805305,1.41735 -0.01709,0.28185 -0.389474,0.4521 -0.688971,0.31547 -0.356526,-0.16328 -0.825184,-0.81025 -0.885742,-1.22351 z m 1.958496,3.71093 c 0.251806,-0.2818 0.763304,-0.0159 1.051433,0.54733 0.31926,0.62388 0.140415,1.09858 -0.334282,0.88678 -0.372231,-0.16608 -0.902328,-1.22667 -0.71049,-1.43733 z m 16.50708,31.9526 c -0.0244,-0.22856 0.03754,-0.55144 0.136576,-0.71711 0.16682,-0.27921 0.205211,-0.29453 0.528539,-0.21238 0.494711,0.12657 1.045185,1.45541 0.848356,2.04651 -0.132085,0.39585 -0.176523,0.43263 -0.479725,0.39613 -0.389543,-0.0466 -0.969257,-0.89628 -1.033202,-1.51416 z m 4.825955,8.82926 c -0.0068,-0.30638 0.06261,-0.7022 0.156508,-0.88046 0.731167,-1.39304 2.487875,1.47734 1.787719,2.92149 l -0.192651,0.39708 -0.44647,-0.0889 c -0.370032,-0.0737 -0.518516,-0.23442 -0.868715,-0.94076 -0.23771,-0.46613 -0.429084,-1.10238 -0.436513,-1.40866 z M 26.240283,128.67203 c 0.04648,-0.40841 0.265596,-0.49909 0.787734,-0.32441 0.587702,0.19533 1.280238,1.51654 1.02394,1.95381 -0.164568,0.28026 -0.205853,0.2917 -0.595572,0.16237 -0.486454,-0.16178 -1.269126,-1.31526 -1.215361,-1.79042 z m 17.250366,33.44494 c 0.02053,-0.2389 0.399288,-0.39744 0.615268,-0.25899 0.58791,0.37858 0.717511,1.8557 0.144288,1.65535 -0.221572,-0.0782 -0.784407,-1.11153 -0.759816,-1.3976 z M 21.53245,118.58573 c 0.187591,-0.84793 1.126537,-0.61605 2.056539,0.50819 0.495016,0.59694 0.605705,0.83574 0.617092,1.30646 0.01488,0.78259 -0.335448,0.98783 -1.082122,0.63399 -0.729595,-0.3454 -1.718119,-1.86931 -1.589525,-2.45008 z m 8.828208,17.40348 c -0.03311,-0.71209 0.678853,-0.56459 1.131771,0.23467 0.261463,0.45918 0.100382,0.963 -0.281498,0.88307 -0.341127,-0.0712 -0.831864,-0.71664 -0.850187,-1.11778 z m 15.366509,29.52136 c 0.01493,-0.37785 0.318232,-0.62575 0.626995,-0.51342 0.276436,0.10074 0.775096,1.22484 0.697148,1.57181 -0.09074,0.40611 -0.445175,0.57191 -0.719575,0.33325 -0.318392,-0.27429 -0.622135,-0.9768 -0.607473,-1.39383 z m 4.042336,7.95623 c -0.09257,-0.5601 0.05981,-1.21566 0.310094,-1.33794 0.737301,-0.35821 1.841985,1.98233 1.299971,2.75221 -0.146341,0.20814 -0.234832,0.24676 -0.481286,0.21738 -0.389063,-0.0468 -1.017191,-0.95555 -1.128157,-1.63263 z M 28.91352,131.91716 c 0.05144,-0.61861 0.624741,-0.5601 1.160537,0.11843 0.403977,0.51046 0.456425,1.19297 0.09965,1.28196 -0.503145,0.12577 -1.312077,-0.77328 -1.260192,-1.40039 z m -4.013206,-8.49647 c -0.03379,-0.38515 0.371077,-0.56426 0.861141,-0.38221 0.859861,0.32136 1.695982,1.92745 1.260706,2.41641 -0.180984,0.20167 -0.740555,0.0754 -1.136174,-0.25744 -0.357256,-0.30009 -0.94934,-1.37081 -0.984036,-1.77941 z m 20.256002,39.01974 c 0.02796,-0.32946 0.03648,-0.33594 0.361111,-0.24887 0.434677,0.11725 0.861399,0.96309 0.698009,1.36482 -0.116044,0.27525 -0.166453,0.30749 -0.375241,0.23983 -0.306166,-0.0983 -0.71285,-0.91692 -0.671612,-1.36241 z m 3.328935,6.43768 c 0.0083,-0.66162 0.419951,-0.87112 0.900743,-0.45708 0.594332,0.5113 0.805614,1.96345 0.320776,2.20051 -0.449913,0.21915 -1.231549,-0.89612 -1.221045,-1.74244 z M 31.122557,134.24419 c 0.227161,-0.25402 0.518028,-0.13568 0.901731,0.36799 0.230606,0.30246 0.335714,0.59856 0.286012,0.81659 -0.07323,0.32873 -0.08835,0.33833 -0.395129,0.25397 -0.380985,-0.10435 -0.99278,-1.21478 -0.79347,-1.43837 z m 24.788556,48.62466 c -0.08601,-0.77214 -0.02173,-1.48096 0.159557,-1.75964 0.188051,-0.28925 0.236192,-0.31374 0.541629,-0.28039 1.045656,0.12534 1.979193,2.90328 1.317815,3.92034 -0.208765,0.32151 -0.241162,0.33785 -0.585563,0.30114 -0.287291,-0.0346 -0.479992,-0.24922 -0.886197,-0.98876 -0.289138,-0.51776 -0.538787,-1.05224 -0.548323,-1.19061 z M 27.715371,127.36557 c -0.01443,-0.27504 0.311531,-0.44621 0.696615,-0.36521 0.44131,0.0924 1.273776,1.52121 1.112427,1.91002 -0.125618,0.30329 -0.144766,0.30882 -0.579899,0.16446 -0.444807,-0.14798 -1.20179,-1.20034 -1.228798,-1.70814 z m 19.730182,38.03314 c 0.03401,-0.40285 0.218861,-0.57471 0.54478,-0.50653 0.363869,0.0762 0.873549,1.35598 0.691514,1.74045 -0.127259,0.2686 -0.154232,0.28135 -0.441426,0.19856 -0.339076,-0.0929 -0.835297,-0.9875 -0.797109,-1.43717 z m 6.306679,12.0878 c -0.243546,-1.16511 -0.02227,-2.03375 0.501873,-1.97065 0.410221,0.0492 1.00075,0.83083 1.20253,1.5916 0.464694,1.7534 -0.380741,2.59435 -1.261253,1.25461 -0.209512,-0.31946 -0.409552,-0.71326 -0.447629,-0.87338 z M 20.83347,112.58501 c -0.103818,-0.60993 -0.06561,-0.77874 0.208843,-0.91301 0.660379,-0.32243 1.797336,0.51639 2.474137,1.82606 0.462623,0.90436 0.490282,1.53661 0.06581,1.74415 -0.682576,0.33236 -2.545421,-1.46779 -2.748785,-2.6572 z m 9.262343,18.10367 c 0.06329,-0.76646 0.834499,-0.40822 1.251333,0.58054 0.216905,0.51125 0.221054,0.68945 0.02258,0.81916 -0.446236,0.29151 -1.333472,-0.68281 -1.273914,-1.3997 z m 16.493225,31.85325 c 0.0569,-0.53049 0.450882,-0.47725 0.81527,0.11043 0.328104,0.52892 0.283916,1.21044 -0.07556,1.16723 -0.254577,-0.0307 -0.776798,-0.93268 -0.738856,-1.27816 z m 5.220742,9.82009 c -0.105599,-0.65085 -0.0069,-1.07589 0.279304,-1.21585 0.242801,-0.12134 0.867009,0.3243 1.105162,0.78636 0.224428,0.43801 0.343712,1.44256 0.208563,1.7759 -0.111805,0.27605 -0.151485,0.29831 -0.466292,0.26272 -0.41697,-0.047 -1.012309,-0.89744 -1.126914,-1.6095 z M 24.193315,117.96751 c -0.01761,-0.59982 0.44266,-0.77236 1.100904,-0.41259 0.403616,0.22062 0.652157,0.5299 1.047094,1.30205 0.553671,1.08375 0.536156,1.45986 -0.07357,1.50021 -0.712439,0.0474 -2.047953,-1.49144 -2.074339,-2.38947 z m 7.844782,15.38051 c 0.14666,-0.38728 0.728953,-0.15261 1.012447,0.40779 0.50123,0.97795 -0.150633,1.27969 -0.760583,0.35261 -0.188963,-0.28561 -0.297698,-0.6296 -0.251398,-0.75962 z m 18.168315,34.65423 c 0.01818,-0.44601 0.504042,-0.72275 0.808334,-0.46011 0.488189,0.42124 0.770669,1.44137 0.561498,2.03406 -0.249981,0.70983 -1.408064,-0.62091 -1.369789,-1.57385 z M 27.092379,122.47304 c 0.264998,-0.98488 2.082177,0.55043 2.058345,1.73844 -0.01039,0.50934 -0.259896,0.59581 -0.874284,0.30303 -0.518626,-0.24721 -1.30261,-1.5995 -1.183784,-2.04178 z m 2.400191,4.42312 c -0.10988,-0.41842 0.135741,-0.75752 0.494544,-0.68253 0.344364,0.0721 1.024895,0.92601 1.15985,1.45577 0.124994,0.49054 -0.287665,0.83648 -0.682685,0.57238 -0.342822,-0.23014 -0.869417,-0.958 -0.971824,-1.34557 z m 19.445104,37.8898 c 0.05258,-0.63477 0.696619,-0.56949 1.046527,0.106 0.36959,0.72304 0.08692,1.61969 -0.413697,1.29724 -0.265625,-0.17148 -0.662916,-1.04976 -0.634388,-1.4025 z M 31.443116,129.96484 c -0.0046,-0.1221 0.08482,-0.26927 0.202748,-0.32673 0.489038,-0.24095 1.454719,0.96299 1.229187,1.53189 -0.102458,0.25794 -0.143723,0.2813 -0.403528,0.22677 -0.303257,-0.0632 -1.010442,-1.04849 -1.02844,-1.43199 z m 16.493937,31.97389 c 0.159941,-0.40301 0.413081,-0.31272 0.721367,0.25911 0.52697,0.9782 0.06596,1.51337 -0.507659,0.58868 -0.214357,-0.34609 -0.290427,-0.652 -0.21343,-0.84794 z M 33.178132,132.8232 c 0.03817,-0.36061 0.253471,-0.50247 0.510297,-0.33757 0.278928,0.17957 0.766708,1.21599 0.641204,1.3575 -0.313851,0.35182 -1.210703,-0.44496 -1.149818,-1.02172 z m 24.913432,47.50292 c -0.304958,-1.17771 -0.04192,-2.20413 0.547003,-2.13334 0.610927,0.0731 1.583434,2.0987 1.48385,3.08948 -0.167953,1.66415 -1.515889,1.02911 -2.030508,-0.95631 z m -2.541338,-5.21465 c -0.09388,-0.60527 0.02326,-1.37709 0.224843,-1.47578 0.433039,-0.21116 0.807966,0.13443 1.234721,1.13877 0.275184,0.64947 0.381236,1.143 0.312737,1.46198 -0.120626,0.5599 -0.542776,0.77741 -0.910362,0.46794 -0.269368,-0.22548 -0.802443,-1.21288 -0.861973,-1.59381 z m -5.339423,-10.9602 c -0.130288,-1.03493 0.527038,-1.03404 0.952403,10e-4 0.276894,0.67466 0.203053,1.14402 -0.171032,1.08558 -0.300632,-0.0472 -0.724577,-0.63664 -0.780882,-1.08698 z m 1.482216,2.77615 c 0.01159,-0.58109 0.280003,-0.7833 0.691188,-0.52094 0.355954,0.22747 0.739015,1.24506 0.637845,1.69595 -0.220923,0.99042 -1.353483,-0.01 -1.329939,-1.17456 z m 1.740107,3.34963 c 0.06642,-0.55419 0.228618,-0.72928 0.60252,-0.65122 0.65911,0.13785 1.302956,2.40258 0.759522,2.66837 -0.500689,0.24645 -1.462585,-1.17865 -1.362042,-2.01715 z m -4.521648,-8.92493 c -0.0267,-0.35666 0.379903,-0.44584 0.668372,-0.14682 0.332475,0.34497 0.424435,1.24117 0.134104,1.31322 -0.215524,0.0535 -0.772239,-0.75583 -0.802629,-1.16646 z M 24.425331,112.22716 c 0.202616,-0.41967 0.207623,-0.42275 0.558978,-0.33602 0.942298,0.23147 2.421271,2.18942 2.241688,2.96812 -0.230895,1.00066 -1.472673,0.40356 -2.381765,-1.14561 -0.567432,-0.96501 -0.605523,-1.10065 -0.418684,-1.4861 z m 2.677119,5.55339 c 0.113552,-0.42321 0.518437,-0.5169 1.010049,-0.23388 0.658307,0.3787 1.532817,2.05322 1.289336,2.46886 -0.09697,0.16551 -0.270093,0.3087 -0.383766,0.31676 -0.623223,0.0455 -2.088747,-1.90715 -1.915701,-2.55217 z m 2.341836,4.57749 c 0.106699,-0.39684 0.346986,-0.44576 0.819455,-0.16553 0.455987,0.27057 1.118399,1.33769 1.12595,1.81679 0.0072,0.42628 -0.412297,0.5559 -0.887471,0.27422 -0.475833,-0.28212 -1.163915,-1.53311 -1.058806,-1.92507 z m 1.92911,3.93407 c 0.02696,-0.31002 0.432593,-0.37985 0.781166,-0.13485 0.370008,0.2602 0.912642,1.20393 0.892615,1.54944 -0.02139,0.34636 -0.403955,0.4323 -0.772153,0.17378 -0.344074,-0.24244 -0.927315,-1.27065 -0.900088,-1.58903 z m 1.741445,3.1756 c 0.2386,-0.33874 0.732943,-0.0414 1.083546,0.6515 0.583023,1.13996 -0.137447,1.36787 -0.829402,0.26117 -0.315127,-0.50294 -0.37621,-0.73706 -0.254344,-0.91301 z m 1.378701,2.82451 c 0.108346,-0.34356 0.600785,-0.0372 0.908885,0.56499 0.270656,0.52844 0.158265,0.89985 -0.23002,0.76317 -0.277226,-0.0972 -0.765902,-1.0523 -0.678336,-1.3284 z m 15.349959,27.87316 c 0.233037,-0.33015 0.40751,-0.24546 0.705197,0.34258 0.292062,0.57376 0.260371,0.94436 -0.08007,0.96947 -0.309165,0.022 -0.8159,-1.04149 -0.629299,-1.31008 z M 35.930819,132.8101 c -0.113849,-0.54497 -0.06516,-0.63434 0.288372,-0.53878 0.587019,0.15887 1.011384,1.43601 0.455093,1.36924 -0.191595,-0.023 -0.692127,-0.58266 -0.74335,-0.83052 z m 15.28225,29.58731 c 0.116047,-0.27525 0.166457,-0.30748 0.375298,-0.23987 0.486992,0.1566 0.922595,1.63 0.537935,1.81808 -0.384137,0.18809 -1.120766,-1.08438 -0.912876,-1.57746 z m 1.563367,2.78743 c 0.01687,-0.40273 0.333625,-0.63575 0.616175,-0.45354 0.342307,0.22013 0.708989,1.14656 0.65569,1.65645 -0.05077,0.48552 -0.06884,0.50522 -0.386476,0.42019 -0.383569,-0.10314 -0.907536,-1.06418 -0.884502,-1.62366 z m -18.01831,-35.58017 c 0.249889,-0.27984 0.601485,-0.10868 0.97219,0.47282 0.435687,0.68535 0.369634,1.09689 -0.157535,0.96447 -0.40046,-0.10077 -1.024561,-1.20189 -0.813567,-1.43782 z m 19.926272,38.7768 c 0.01049,-0.29136 0.01312,-0.54145 0.0074,-0.55652 -0.0068,-0.0143 0.09146,-0.0784 0.218516,-0.14004 0.31403,-0.15496 0.636917,0.12416 0.990639,0.85378 0.349407,0.73974 0.387134,1.4639 0.06799,1.61999 -0.539776,0.26491 -1.317752,-0.81212 -1.284598,-1.77791 z M 33.396585,126.60342 c 0.08463,-0.74994 0.778329,-0.44902 1.295597,0.56191 0.62084,1.21331 -0.205577,1.47049 -0.969368,0.30132 -0.198015,-0.3048 -0.353594,-0.68918 -0.325198,-0.86388 z m 23.479716,45.36145 c 0.04738,-1.14768 0.754764,-1.14097 1.343344,0.0127 0.412367,0.80617 0.509701,1.45438 0.298356,1.94862 -0.136451,0.31824 -0.14149,0.32095 -0.483146,0.23484 -0.420145,-0.10307 -1.186183,-1.55506 -1.160096,-2.19821 z m -25.010513,-49.2499 c 0.07157,-0.17173 0.225496,-0.3178 0.344122,-0.32645 0.58327,-0.0428 1.693975,1.58806 1.468749,2.15605 -0.113748,0.28679 -0.139756,0.29415 -0.555992,0.15522 -0.589357,-0.19594 -1.441244,-1.54137 -1.25718,-1.98538 z m 18.557646,36.27185 c 0.07821,-0.45863 0.255786,-0.48701 0.593923,-0.0952 0.553569,0.64214 0.339479,1.6291 -0.22681,1.04282 -0.357711,-0.36941 -0.432937,-0.5636 -0.365987,-0.94799 z m 9.123794,17.8941 c -0.233841,-1.11336 0.06634,-1.9356 0.631753,-1.72919 0.981034,0.35778 1.738035,3.28431 0.949179,3.67003 -0.158412,0.0748 -0.37544,0.0825 -0.485714,0.0114 -0.356323,-0.22974 -0.959199,-1.30397 -1.094952,-1.95254 z m -29.495301,-58.3967 c 0.047,-0.41918 0.39954,-0.56404 0.828488,-0.3398 0.431421,0.22525 1.244165,1.43958 1.35966,2.0315 0.10256,0.53 -0.298642,0.72661 -0.881275,0.43031 -0.465218,-0.23534 -1.356779,-1.68357 -1.30683,-2.12319 z m 7.260906,14.23925 c 0.125331,-0.36036 0.364145,-0.24289 0.776708,0.38281 0.247219,0.37698 0.324583,0.63515 0.228584,0.74402 -0.08273,0.0924 -0.207521,0.16183 -0.278532,0.15268 -0.231919,-0.028 -0.809718,-1.04324 -0.727999,-1.27896 z m 14.548755,28.51915 c -0.06846,-0.39835 0.09834,-0.74157 0.346202,-0.71174 0.108747,0.0132 0.327277,0.28418 0.489852,0.60236 0.322263,0.63024 0.294053,1.23042 -0.05655,1.18853 -0.252302,-0.0303 -0.708763,-0.66038 -0.781339,-1.07828 z M 27.950257,113.50619 c 0.02964,-0.67366 0.299373,-0.78479 0.99294,-0.40828 0.504725,0.27358 0.710048,0.52339 1.18554,1.44261 0.449012,0.87555 0.539861,1.17268 0.407931,1.39794 -0.152044,0.25996 -0.198789,0.28064 -0.510307,0.21992 -0.553624,-0.10409 -1.063694,-0.55225 -1.59692,-1.40175 -0.318549,-0.50498 -0.491618,-0.96278 -0.479194,-1.25156 z m 8.463393,16.75938 c -0.03286,-0.36459 0.405088,-0.4539 0.695512,-0.14217 0.388232,0.41397 0.669527,1.23393 0.477115,1.38539 -0.327743,0.2591 -1.111462,-0.57238 -1.172477,-1.24321 z m 17.115264,32.91465 c 0.06081,-0.74769 0.986804,-0.29273 1.210565,0.59508 0.07105,0.28268 0.0707,0.65277 -0.0011,0.82277 -0.113334,0.26835 -0.162145,0.29877 -0.371049,0.23222 -0.300096,-0.0966 -0.872911,-1.22385 -0.842922,-1.64712 z M 50.80497,157.4913 c 0.05343,-0.49624 0.396447,-0.39996 0.697524,0.19518 0.273633,0.53473 0.265761,1.00926 -0.01105,0.97595 -0.247369,-0.0295 -0.722364,-0.83899 -0.686247,-1.17123 z M 35.426127,127.17173 c 0.0486,-0.57779 0.965173,-0.19754 1.357214,0.56342 0.19955,0.39274 0.191899,0.9874 -0.01814,1.09016 -0.366975,0.17998 -1.387727,-1.08058 -1.33907,-1.65358 z m 20.188589,39.27585 c -0.167517,-0.57762 -0.0063,-1.20522 0.299012,-1.16857 0.293948,0.0353 0.796562,0.75123 0.969571,1.38243 0.171996,0.62571 0.0208,1.24284 -0.294744,1.20502 -0.268307,-0.0322 -0.795676,-0.80062 -0.974097,-1.41876 z M 38.855771,133.32556 c 0.209113,-0.23425 0.357313,-0.15882 0.700924,0.34252 0.333583,0.48924 0.311628,0.88789 -0.04914,0.91367 -0.274339,0.0212 -0.832165,-1.05436 -0.644498,-1.25971 z m 13.456391,25.90818 c -0.02577,-0.75978 0.448147,-0.66556 0.877768,0.17444 0.245972,0.47618 0.156744,1.13605 -0.14598,1.09968 -0.253733,-0.0304 -0.716582,-0.8364 -0.731707,-1.27415 z M 34.316515,123.67129 c 0.03557,-0.43818 0.393316,-0.48343 0.866202,-0.10977 0.767257,0.60713 1.196675,1.90856 0.671461,2.03762 -0.541274,0.13281 -1.597681,-1.19158 -1.537626,-1.92801 z m 3.907211,7.30344 c 0.123823,-0.35613 0.516761,-0.25405 0.881318,0.23932 0.373958,0.50264 0.379414,1.21124 0.01107,1.16711 -0.320423,-0.0386 -0.997179,-1.10512 -0.892166,-1.40654 z m 19.602921,38.09744 c 0.02011,-0.68271 0.140981,-0.86109 0.528043,-0.78014 0.401144,0.0843 1.163884,1.55943 1.16633,2.23223 -0.0068,0.61064 -0.321509,0.89458 -0.711318,0.64135 -0.420939,-0.27364 -0.991185,-1.50248 -0.973449,-2.09804 z m -6.831874,-13.43216 c 0.147737,-0.25125 0.332357,-0.23596 0.588433,0.0484 0.309229,0.34331 0.385469,0.97512 0.140594,1.16918 -0.184529,0.14513 -0.863227,-0.98849 -0.728863,-1.21761 z M 40.349985,134.28552 c 0.209113,-0.23426 0.35717,-0.15875 0.700818,0.3426 0.361527,0.52835 0.311022,0.99584 -0.09461,0.8622 -0.319618,-0.10597 -0.776509,-1.01382 -0.614243,-1.20086 z m 13.663843,26.70646 c 0.06603,-0.80932 0.887396,-0.25558 1.146083,0.77274 0.164061,0.65424 0.03769,1.00586 -0.317873,0.88059 -0.293841,-0.10341 -0.863077,-1.23722 -0.822303,-1.65619 z M 32.961393,119.59751 c -0.01128,-0.11898 0.08683,-0.27022 0.216993,-0.33381 0.394326,-0.19288 1.114642,0.35417 1.562542,1.18697 0.660018,1.22419 0.235149,1.91978 -0.69409,1.13826 -0.352818,-0.29663 -1.047542,-1.57127 -1.085602,-1.99146 z m 27.646738,53.87102 c -0.262384,-0.81039 -0.185497,-1.58529 0.174559,-1.7614 0.263457,-0.13113 0.873726,0.33353 1.152667,0.87565 0.44611,0.87016 0.540452,2.45855 0.154761,2.64714 -0.427328,0.20848 -1.105435,-0.59715 -1.482024,-1.76138 z M 37.616339,128.03144 c 0.158178,-0.22321 0.227242,-0.2323 0.489202,-0.0621 0.382525,0.24881 0.929689,1.3069 0.827756,1.61573 -0.137124,0.43795 -0.597774,0.19355 -1.061149,-0.56306 -0.351529,-0.57256 -0.401972,-0.78416 -0.261513,-0.98764 z m 14.879805,29.3661 c -0.03787,-0.17305 0.0037,-0.41796 0.09244,-0.54443 0.130229,-0.18502 0.210925,-0.18732 0.409331,-0.008 0.275829,0.24882 0.669089,1.26122 0.551212,1.45234 -0.211163,0.3602 -0.905361,-0.23197 -1.053917,-0.89999 z m -1.54378,-3.42371 c -0.04087,-0.42763 0.3952,-0.32532 0.697166,0.16409 0.348341,0.56434 0.299067,1.01438 -0.09807,0.88312 -0.241977,-0.0798 -0.560901,-0.63833 -0.598643,-1.04743 z M 39.99476,132.06222 c 0.09327,-0.29819 0.271036,-0.26315 0.6911,0.1358 0.362607,0.34337 0.579654,1.01467 0.398607,1.21844 -0.30816,0.34491 -1.253528,-0.83088 -1.089133,-1.35451 z m 1.742519,3.53381 c -0.01497,-0.27618 0.192851,-0.38803 0.433077,-0.23264 0.506576,0.32633 0.701629,1.37249 0.256204,1.31429 -0.165962,-0.0199 -0.675028,-0.81605 -0.688539,-1.08096 z m 14.242114,27.83665 c -0.0692,-0.38134 0.239485,-0.78182 0.526279,-0.68093 0.310605,0.10917 0.932143,1.36411 0.921571,1.86265 -0.0097,0.48261 -0.327196,0.69617 -0.6372,0.42843 -0.236968,-0.20221 -0.733061,-1.19306 -0.801323,-1.61475 z m -24.550961,-48.4831 c 0.09684,-0.84269 1.188342,-0.38756 1.974036,0.82308 0.556344,0.85534 0.669676,1.53892 0.300904,1.78101 -0.420198,0.27634 -1.113627,-0.25311 -1.747331,-1.33391 -0.31088,-0.5274 -0.538839,-1.10366 -0.527358,-1.27029 z m 5.335334,9.98356 c 0.0232,-0.28827 0.06374,-0.32357 0.337901,-0.29125 0.733502,0.088 1.677465,1.72513 1.208128,2.09704 -0.453768,0.36035 -1.611997,-0.99173 -1.546955,-1.80523 z m 13.970105,27.0735 c -0.05966,-0.65465 0.786635,-0.056 0.888349,0.62838 0.06144,0.40657 -0.101538,0.56784 -0.387001,0.38393 -0.201406,-0.12916 -0.470975,-0.67386 -0.493892,-1.0159 z m 3.48187,6.6214 c 0.03276,-0.81228 0.624799,-0.47868 1.025488,0.57824 0.269036,0.70854 0.15991,1.16475 -0.244316,1.02226 -0.299465,-0.10566 -0.799228,-1.13176 -0.78066,-1.60074 z m -10.98175,-21.77612 c 0.05483,-0.17894 0.139615,-0.18002 0.410744,-0.006 0.321891,0.20812 0.601882,0.87893 0.463858,1.11432 -0.218053,0.37115 -1.019329,-0.6453 -0.874009,-1.10877 z m 9.212866,18.00716 c 0.126726,-0.40347 0.495841,-0.24415 0.796589,0.35029 0.322504,0.63076 0.302347,1.00721 -0.04756,1.03249 -0.253371,0.018 -0.845695,-1.07556 -0.749559,-1.38253 z m -12.78038,-25.44353 c 0.242622,-0.27219 0.553245,-0.11992 0.967652,0.47271 0.261269,0.37182 0.381499,0.69548 0.325944,0.91969 -0.07395,0.32942 -0.08865,0.33918 -0.396018,0.2544 -0.385786,-0.1056 -1.102573,-1.41892 -0.900165,-1.64644 z m 2.032752,4.02047 c 0.160911,-0.48115 0.74604,0.0182 1.065631,0.90955 0.147145,0.41407 0.05487,0.56056 -0.296021,0.46484 -0.363349,-0.0997 -0.884559,-1.0307 -0.76983,-1.37417 z m 16.605275,32.33935 c 0.02154,-1.06847 0.838593,-0.76314 1.345281,0.50286 0.340649,0.85052 0.342261,1.52354 0.0047,1.6886 -0.109051,0.0515 -0.279469,0.0434 -0.379295,-0.0202 -0.310414,-0.20017 -0.980166,-1.69838 -0.971331,-2.17086 z m -7.993851,-15.7728 c -0.05802,-0.63927 0.740864,-0.0572 0.861727,0.62798 0.07402,0.41308 -0.07299,0.56926 -0.360403,0.38435 -0.201274,-0.12888 -0.470926,-0.67376 -0.493855,-1.01583 z M 35.870327,121.33876 c -0.02955,-0.90897 1.004215,-0.47434 1.620156,0.67862 0.451567,0.8349 0.508748,1.26212 0.206421,1.41006 -0.111928,0.0528 -0.361034,0.0159 -0.552986,-0.0874 -0.410198,-0.21971 -1.258752,-1.55369 -1.273491,-2.00134 z m 8.720326,16.9968 c 0.186643,-0.20827 0.420137,-0.0546 0.675522,0.44442 0.12991,0.25279 0.213037,0.5328 0.187795,0.62054 -0.101094,0.33661 -0.41866,0.16611 -0.694477,-0.37272 -0.156233,-0.30852 -0.233307,-0.61953 -0.167552,-0.69285 z m 5.16564,9.63261 c 0.02131,-0.27368 0.06807,-0.32034 0.25458,-0.25504 0.300886,0.10569 0.675289,0.85004 0.583989,1.14201 -0.18913,0.56503 -0.887259,-0.18386 -0.83098,-0.89097 z m 2.39832,4.68742 c 0.04159,-0.52056 0.485678,-0.35684 0.822897,0.30239 0.313867,0.61248 0.207658,1.09284 -0.208416,0.94631 -0.294827,-0.10401 -0.648389,-0.82356 -0.614398,-1.24873 z m 3.992532,7.96375 c -0.06895,-0.38156 0.239897,-0.78208 0.526681,-0.68106 0.25466,0.0903 0.876187,1.29171 0.901044,1.76124 0.02942,0.41309 -0.386308,0.68093 -0.672729,0.43353 -0.239158,-0.2061 -0.685118,-1.08858 -0.7707,-1.50607 z M 43.332407,135.20619 c -0.02826,-0.5882 0.63702,-0.2552 0.995174,0.49845 0.174234,0.39111 0.09044,0.82463 -0.16951,0.79355 -0.17187,-0.0205 -0.81315,-1.02227 -0.826037,-1.29181 z m 2.543002,4.83992 c 0.07452,-0.0823 0.207504,-0.10468 0.300095,-0.0432 0.265896,0.17206 0.595872,1.16643 0.412349,1.22227 -0.237614,0.0729 -0.879401,-0.99036 -0.712059,-1.17832 z m 8.255007,16.08753 c 0.02855,-0.35573 0.245917,-0.49929 0.503263,-0.33427 0.292776,0.18884 0.699543,1.09535 0.675058,1.50426 -0.02215,0.36405 -0.0337,0.37376 -0.35399,0.28757 -0.368874,-0.10026 -0.864834,-0.97653 -0.823939,-1.45828 z M 39.238655,126.51028 c 0.133166,-0.31702 0.151238,-0.31889 0.586284,-0.0631 0.514043,0.30245 0.987316,1.12623 0.9554,1.66452 -0.01877,0.33777 -0.04844,0.36337 -0.367258,0.32548 -0.500697,-0.0601 -1.364447,-1.47516 -1.174793,-1.92614 z m 2.408744,5.00005 c 0.0044,-0.10949 0.0075,-0.27839 0.0048,-0.37476 -0.0055,-0.32595 0.534199,-0.17468 0.86782,0.24212 0.538507,0.67341 0.511069,1.70919 -0.03603,1.35651 -0.282159,-0.18122 -0.845617,-1.00644 -0.836739,-1.2238 z m 5.421596,10.4149 c 0.221779,-0.24831 0.38721,-0.15124 0.666584,0.39466 0.144371,0.28341 0.232242,0.56675 0.195811,0.62931 -0.159714,0.27272 -0.498973,0.10582 -0.739019,-0.36372 -0.142511,-0.27947 -0.198801,-0.57621 -0.124527,-0.65971 z m 1.06603,1.94927 c 0.115868,-0.29271 0.141969,-0.29169 0.428405,0.0156 0.53372,0.57262 0.481215,1.47878 -0.05861,1.01274 -0.360254,-0.3109 -0.500653,-0.69954 -0.370116,-1.02807 z m 0.84781,1.95766 c 0.147296,-0.2507 0.411878,-0.1195 0.633055,0.31261 0.268427,0.52372 0.28045,0.87094 0.03288,0.88903 -0.196546,0.0138 -0.770881,-1.0227 -0.666159,-1.20154 z m 11.927127,23.13029 c -0.03496,-0.27833 0.03149,-0.65193 0.147833,-0.83097 0.200406,-0.30842 0.227041,-0.31854 0.505101,-0.19467 0.38932,0.17401 1.186148,1.75281 1.205702,2.40621 0.02535,0.62956 -0.185165,0.98446 -0.557656,0.93994 -0.325107,-0.0389 -1.221297,-1.62628 -1.307939,-2.31726 z M 44.971943,137.04862 c 0.05632,-0.53695 0.502956,-0.359 0.862541,0.34366 0.323867,0.63365 0.307688,0.90556 -0.05456,0.86267 -0.315884,-0.0378 -0.847479,-0.83144 -0.80865,-1.20596 z m 6.72679,13.1477 c 0.232601,-0.26115 0.41669,-0.13883 0.738279,0.48975 0.171539,0.33344 0.27771,0.66302 0.237135,0.73166 -0.176081,0.29974 -0.508972,0.10911 -0.798582,-0.45712 -0.172898,-0.33632 -0.25132,-0.68071 -0.177607,-0.76393 z M 34.906696,117.00958 c 0.09249,-0.82426 1.070982,-0.35913 1.798063,0.85494 0.790884,1.31771 0.632829,2.06951 -0.331017,1.58605 -0.463253,-0.23222 -1.518179,-1.9876 -1.466815,-2.44109 z m 16.058166,30.97953 c 0.137232,-0.46083 0.429179,-0.32309 0.782546,0.36803 0.307711,0.59944 0.281455,0.99419 -0.06058,0.9527 -0.244386,-0.0291 -0.802374,-1.05148 -0.722369,-1.32055 z m 2.795056,5.4642 c 0.02855,-0.35572 0.245636,-0.49922 0.503317,-0.33296 0.292935,0.18843 0.699492,1.09524 0.675267,1.50394 -0.02217,0.36401 -0.03375,0.37368 -0.354019,0.2876 -0.368867,-0.10026 -0.864613,-0.97667 -0.823866,-1.45814 z m 4.664321,9.01192 c 0.02866,-1.42273 1.511368,-0.13006 1.569126,1.36794 0.02241,0.5817 -0.343333,0.92188 -0.679084,0.6321 -0.364322,-0.3143 -0.899346,-1.51836 -0.89051,-1.99978 z M 43.595363,133.159 c 0.02796,-0.32945 0.03648,-0.33593 0.36137,-0.24898 0.528286,0.14251 1.169858,1.58158 0.788209,1.76832 -0.394327,0.1929 -1.203034,-0.87571 -1.149562,-1.51892 z m 2.87925,5.67516 c 0.208541,-0.23399 0.356309,-0.15835 0.717563,0.34794 0.370555,0.52146 0.352587,1.19532 -0.02835,1.06127 -0.304552,-0.10677 -0.852378,-1.22646 -0.690014,-1.40883 z m 9.579976,18.54681 c 0.09985,-0.7386 0.503513,-0.58075 0.994206,0.38871 0.72072,1.40696 0.13779,2.08508 -0.653001,0.76534 -0.270483,-0.45003 -0.384646,-0.83658 -0.341177,-1.15406 z m -17.323197,-34.0369 c 0.08279,-0.71496 0.725189,-0.50506 1.378249,0.4496 0.434651,0.6356 0.613335,1.53555 0.332556,1.67287 -0.434963,0.21207 -1.787094,-1.46433 -1.710805,-2.12247 z m 2.918205,5.75911 c -0.208489,-0.56179 -0.05974,-0.83617 0.385126,-0.71635 0.381596,0.10267 1.123577,1.42058 1.008487,1.78955 -0.175028,0.55782 -1.038045,-0.10744 -1.392927,-1.07361 z m 6.173596,12.01924 c 0.123039,-0.39121 0.495897,-0.24417 0.770166,0.29799 0.322126,0.62995 0.264222,1.05654 -0.119995,0.929 -0.294675,-0.0977 -0.740449,-0.9397 -0.651828,-1.2262 z m 1.228293,2.39981 c -0.02689,-0.41816 0.256507,-0.49344 0.587248,-0.15659 0.331698,0.33664 0.501384,1.10607 0.261909,1.1869 -0.183387,0.0621 -0.562931,-0.21691 -0.724142,-0.53161 -0.05476,-0.11594 -0.113947,-0.33933 -0.12548,-0.499 z m 1.080873,2.04758 c 0.136016,-0.40611 0.547383,-0.15071 0.791485,0.49078 0.23497,0.61635 0.210627,0.78628 -0.115775,0.81018 -0.258098,0.0193 -0.780913,-0.98671 -0.667865,-1.30472 z m 3.071261,5.0589 c 0.120466,-0.30154 0.138862,-0.30495 0.472338,-0.0929 0.347259,0.22096 0.786914,1.22608 0.681731,1.56891 -0.03806,0.12825 -0.145814,0.15426 -0.368137,0.0934 -0.419719,-0.11487 -0.947074,-1.16699 -0.78037,-1.57187 z m -7.759886,-15.38097 c 0.05807,-0.18397 0.124803,-0.22252 0.340305,-0.1969 0.302864,0.0363 0.903716,1.07288 0.865243,1.49223 -0.02547,0.26932 -0.03006,0.27148 -0.354754,0.18867 -0.376218,-0.10169 -0.959588,-1.11968 -0.848725,-1.47731 z m 15.64368,30.14563 c -0.09544,-0.37521 -0.112758,-0.86002 -0.04084,-1.0757 0.125393,-0.37583 0.144278,-0.38861 0.448386,-0.3059 0.38155,0.1048 1.211233,1.63826 1.259344,2.32658 0.0418,0.60283 -0.203605,0.96646 -0.546231,0.81008 -0.402733,-0.18384 -0.936101,-1.01915 -1.120672,-1.75583 z m -13.955106,-27.5259 c -0.04637,-0.38057 0.132448,-0.61275 0.398746,-0.51897 0.256925,0.0906 0.845992,1.14009 0.826121,1.47034 -0.04471,0.72277 -1.124836,-0.11619 -1.224665,-0.95139 z m 5.275689,10.0288 c 0.124201,-0.31001 0.128507,-0.31203 0.36733,-0.16356 0.366691,0.22123 0.853769,1.31337 0.701236,1.5723 -0.106916,0.18459 -0.179418,0.2139 -0.365042,0.1479 -0.360461,-0.12704 -0.843268,-1.19454 -0.70335,-1.54856 z m 3.172796,6.35755 c 0.01441,-0.16791 0.09848,-0.34067 0.187635,-0.38451 0.256871,-0.12791 0.607536,0.28295 0.940247,1.10044 0.322395,0.79029 0.237646,1.28578 -0.192739,1.13399 -0.290886,-0.10235 -0.968082,-1.44391 -0.944386,-1.84555 z M 43.819399,130.84889 c 0.03592,-0.44932 0.380783,-0.38765 0.891521,0.1601 0.476862,0.51094 0.732636,1.5065 0.426042,1.65647 -0.410913,0.20072 -1.37299,-1.12548 -1.317563,-1.81657 z m 14.373082,28.04556 c 0.01691,-0.40263 0.333447,-0.6356 0.616282,-0.4536 0.557306,0.35925 1.173634,2.34204 0.799615,2.52488 -0.448478,0.21846 -1.449006,-1.24533 -1.415995,-2.07148 z M 38.237169,119.5671 c 0.04211,-0.50086 0.279805,-0.61651 0.724589,-0.3522 0.972194,0.57619 1.795696,2.45609 1.203224,2.7458 -0.526488,0.25864 -1.997315,-1.56777 -1.927561,-2.39329 z m 10.454194,20.48059 c 0.190086,-0.60575 1.063727,0.18886 1.131198,1.02867 0.03856,0.48739 0.02083,0.51519 -0.284519,0.43169 -0.361658,-0.0991 -0.953953,-1.12018 -0.847196,-1.45997 z m 1.416453,2.86805 c -0.06503,-0.7879 0.501189,-0.7062 0.936316,0.13506 0.295241,0.58049 0.23426,1.23463 -0.109545,1.10904 -0.235607,-0.0856 -0.80175,-0.93758 -0.826112,-1.24441 z m 1.225918,2.26177 c 0.269515,-0.30175 0.526936,-0.14568 0.867734,0.52655 0.390957,0.76824 0.373268,1.222 -0.04015,1.08488 -0.311867,-0.10367 -0.991548,-1.42745 -0.826067,-1.61215 z m -9.802637,-19.71386 c 0.159544,-0.22698 0.241456,-0.22745 0.615742,-0.005 0.496775,0.29428 1.129905,1.42885 1.099933,1.96755 -0.01994,0.34568 -0.04136,0.36353 -0.38622,0.32249 -0.52899,-0.0632 -1.598855,-1.90262 -1.330117,-2.28471 z m 13.317639,25.86404 c -0.01683,-0.43551 0.366779,-0.58888 0.730439,-0.29225 0.58577,0.47815 0.808884,1.96516 0.28639,1.90187 -0.273412,-0.0326 -1.000835,-1.18421 -1.017419,-1.6093 z m -8.978732,-17.88266 c -0.03199,-0.33449 0.399676,-0.46573 0.700674,-0.2123 0.422635,0.35527 0.860872,1.40346 0.71372,1.71315 -0.119219,0.25217 -0.164664,0.25925 -0.481273,0.0761 -0.33886,-0.19649 -0.892014,-1.13172 -0.932677,-1.57628 z m 8.056714,14.84761 c -0.0606,-0.48949 0.01562,-0.64391 0.301048,-0.60959 0.610897,0.0732 1.33263,1.96045 0.799526,2.09176 -0.396843,0.0979 -1.005976,-0.7227 -1.100717,-1.4821 z m 3.723772,7.27807 c -0.05441,-0.43995 0.0972,-0.81784 0.318524,-0.79144 0.510128,0.0613 1.192912,1.3547 1.147025,2.17277 -0.05949,1.06274 -1.307291,-0.11293 -1.46566,-1.38127 z m -9.818024,-19.4436 c -0.0154,-0.27633 0.34977,-0.46847 0.592875,-0.31167 0.285663,0.18344 0.895276,1.4815 0.810404,1.73798 -0.0578,0.18454 -0.12467,0.2228 -0.341024,0.19724 -0.271991,-0.0326 -1.04448,-1.20609 -1.066436,-1.62093 z m 12.884279,25.06047 c -0.124658,-0.60872 -0.05095,-1.12904 0.174952,-1.2395 0.485412,-0.2359 1.501123,1.48839 1.472671,2.49884 -0.0131,0.46271 -0.310633,0.70708 -0.619191,0.50868 -0.339267,-0.2189 -0.912759,-1.20566 -1.027404,-1.76866 z M 44.022336,128.30059 c 0.0382,-0.30482 0.461101,-0.39997 0.739707,-0.16691 0.440689,0.36897 1.106401,1.79992 0.956836,2.05548 -0.266263,0.45325 -0.642825,0.20851 -1.192192,-0.77607 -0.289076,-0.51688 -0.519204,-1.01601 -0.504463,-1.1126 z m 8.693573,16.81004 c -0.03103,-0.90666 0.911272,-0.40931 1.218241,0.64343 0.173845,0.60065 0.07815,0.90873 -0.271805,0.8665 -0.29805,-0.0358 -0.930401,-1.04475 -0.945146,-1.51054 z M 41.39486,122.52944 c 0.0085,-0.25464 0.08982,-0.49277 0.18139,-0.52942 0.806157,-0.3236 2.393737,2.39152 1.618593,2.7706 -0.489373,0.23778 -1.827367,-1.42667 -1.800845,-2.24078 z m 8.260884,16.25127 c 0.211674,-0.67501 1.42044,0.63358 1.365118,1.47724 -0.02653,0.38821 -0.03936,0.39971 -0.358145,0.31378 -0.380298,-0.10364 -1.121929,-1.42252 -1.006859,-1.79056 z m 1.609066,3.14652 c 0.0419,-0.36238 0.256301,-0.50385 0.512936,-0.33883 0.639211,0.41192 1.056281,2.25852 0.465496,2.03985 -0.302477,-0.11054 -1.017835,-1.35449 -0.979836,-1.7014 z m 5.536088,10.02705 c -0.142639,-1.14252 0.618046,-0.88846 1.173461,0.39169 0.285005,0.65541 0.340566,0.97739 0.209792,1.19982 -0.166492,0.28362 -0.203809,0.28265 -0.558015,-0.0152 -0.429994,-0.36192 -0.749936,-0.97314 -0.8302,-1.57409 z M 46.48095,131.32527 c 0.03328,-0.81986 0.71354,-0.50095 1.275097,0.59646 0.571681,1.11595 0.313575,1.73071 -0.440765,1.05141 -0.500293,-0.45057 -0.854454,-1.14985 -0.841595,-1.64431 z m 13.594569,25.83556 c -0.245286,-0.81655 -0.230686,-1.12302 0.06326,-1.26671 0.309812,-0.15296 0.700261,0.22319 1.120621,1.07793 0.401347,0.82746 0.468676,1.65659 0.136758,1.81895 -0.197752,0.10001 -0.381681,-0.0473 -0.964715,-0.76382 -0.08362,-0.10196 -0.248789,-0.48959 -0.356729,-0.86597 z m -11.30884,-22.36801 c -0.159251,-0.56159 0.0067,-0.87936 0.404359,-0.77045 0.314104,0.0861 1.083621,1.40994 1.127595,1.93916 0.07704,0.93704 -1.210503,-0.0455 -1.531352,-1.169 z m 6.876632,13.30642 c 0.03306,-0.40485 0.369838,-0.48743 0.745918,-0.1828 0.303558,0.24585 0.786068,1.38852 0.762899,1.7987 -0.02114,0.32905 -0.383408,0.46822 -0.640019,0.24679 -0.326309,-0.28287 -0.895785,-1.50488 -0.866108,-1.8634 z M 44.314078,125.65477 c -0.01949,-0.55177 0.411561,-0.67435 0.88194,-0.25055 0.788498,0.70999 1.354839,2.2776 0.903481,2.49836 -0.413668,0.20203 -1.758758,-1.49082 -1.785334,-2.24778 z m 6.467293,12.21019 c -0.05105,-0.51604 0.02623,-0.6482 0.35781,-0.60855 0.348178,0.0416 1.313445,1.90349 1.147386,2.1951 -0.09418,0.16026 -0.192892,0.18091 -0.41062,0.0831 -0.389257,-0.17389 -1.036967,-1.17093 -1.087994,-1.67327 z m 3.44897,6.74161 c -0.03094,-0.45338 0.369723,-0.58064 0.758914,-0.24059 0.415229,0.36337 0.866256,1.61997 0.704893,1.96274 -0.104754,0.22113 -0.16809,0.22821 -0.470594,0.0528 -0.375156,-0.21759 -0.957454,-1.25785 -0.992877,-1.77434 z m -1.621893,-3.59649 c 0.04952,-0.46587 0.305809,-0.50365 0.761986,-0.11263 0.719948,0.61762 1.018631,2.1937 0.400298,2.12037 -0.308815,-0.0371 -1.207459,-1.5889 -1.162709,-2.00757 z m 6.302942,11.39763 c -0.02407,-0.63875 0.208644,-0.82127 0.650919,-0.51032 0.702912,0.4938 1.28024,2.31437 0.843695,2.66056 -0.414646,0.32889 -1.457571,-1.17078 -1.494656,-2.15032 z m -11.8268,-23.40235 c -0.02664,-0.89568 0.930876,-0.47132 1.501545,0.67258 0.527654,1.07998 0.430367,1.72144 -0.234684,1.4244 -0.400889,-0.17919 -1.25151,-1.58695 -1.267009,-2.09685 z m 10.485949,19.26787 c -0.04185,-0.49358 0.23895,-0.75882 0.574376,-0.54263 0.712859,0.45927 1.367024,2.32345 0.934397,2.66414 -0.40269,0.31725 -1.423144,-1.11767 -1.508815,-2.12161 z m -7.91169,-15.72853 c -0.0104,-0.16847 0.05777,-0.36741 0.153023,-0.44308 0.286313,-0.2279 0.751055,0.20313 1.230253,1.13963 0.432139,0.84803 0.495581,1.36653 0.179294,1.52118 -0.386664,0.18927 -1.508018,-1.40236 -1.562577,-2.21773 z m 2.338015,3.69186 c -0.04997,-0.91856 0.711869,-0.52121 1.334319,0.69539 0.435824,0.84837 0.496396,1.36824 0.180282,1.52278 -0.413698,0.20205 -1.466402,-1.33988 -1.514595,-2.21817 z m 2.192262,4.33217 c -0.213695,-0.95477 0.03986,-1.20321 0.673891,-0.66121 0.874045,0.74716 1.262097,2.91131 0.422552,2.35191 -0.442301,-0.29436 -0.964083,-1.09845 -1.097154,-1.69043 z m 1.775846,3.47137 c 0.03056,-0.38414 0.376138,-0.49497 0.699311,-0.22402 0.373659,0.314 0.903425,1.38654 0.939013,1.90477 0.03652,0.52549 -0.2804,0.78127 -0.612488,0.49464 -0.331949,-0.28663 -1.056795,-1.819 -1.027318,-2.17496 z"
       style="fill:#c0c0c0;fill-opacity:1;stroke:none;stroke-width:0.1444087;stroke-opacity:1" />
    <text
       id="text4268"
       y="139.5065"
       x="150.97673"
       style="font-style:normal;font-variant:normal;font-weight:normal;font-stretch:normal;font-size:22.10150337px;line-height:0;font-family:LeviBrush;-inkscape-font-specification:LeviBrush;text-align:center;letter-spacing:0px;word-spacing:0px;text-anchor:middle;fill:#ffa800;fill-opacity:1;stroke:none;stroke-width:0.38481206;stroke-miterlimit:4;stroke-dasharray:none;stroke-opacity:1"
       xml:space="preserve"
       transform="matrix(0.8112634,-0.1103028,0.17907199,1.2082979,0,0)"><tspan
         style="font-style:normal;font-variant:normal;font-weight:normal;font-stretch:normal;font-family:LeviReBrushed;-inkscape-font-specification:LeviReBrushed;fill:#ffa800;fill-opacity:1;stroke:none;stroke-width:0.38481206;stroke-miterlimit:4;stroke-dasharray:none;stroke-opacity:1"
         y="139.5065"
         x="150.97673"
         id="tspan4266">digitales</tspan></text>
    <text
       transform="scale(0.70448428,1.4194781)"
       xml:space="preserve"
       style="font-style:normal;font-variant:normal;font-weight:normal;font-stretch:normal;font-size:23.94431305px;line-height:0;font-family:LeviBrush;-inkscape-font-specification:LeviBrush;text-align:center;letter-spacing:0px;word-spacing:0px;text-anchor:middle;fill:#4d6b7c;fill-opacity:1;stroke:#ffffff;stroke-width:1.02059281;stroke-miterlimit:4;stroke-dasharray:none;stroke-opacity:1"
       x="268.67361"
       y="107.17535"
       id="text4272"><tspan
         id="tspan4270"
         x="268.67361"
         y="107.17535"
         style="font-style:normal;font-variant:normal;font-weight:normal;font-stretch:normal;font-family:Audiowide;-inkscape-font-specification:Audiowide;fill:#4d6b7c;fill-opacity:1;stroke:none;stroke-width:1.02059281;stroke-miterlimit:4;stroke-dasharray:none;stroke-opacity:1">.es</tspan></text>
    <text
       id="text4276"
       y="108.88151"
       x="106.62708"
       style="font-style:normal;font-variant:normal;font-weight:normal;font-stretch:normal;font-size:24.37334251px;line-height:0;font-family:LeviBrush;-inkscape-font-specification:LeviBrush;text-align:center;letter-spacing:0px;word-spacing:0px;text-anchor:middle;fill:#4d6b7c;fill-opacity:1;stroke:none;stroke-width:1.13652027;stroke-miterlimit:4;stroke-dasharray:none;stroke-opacity:1"
       xml:space="preserve"
       transform="scale(0.71498957,1.3986218)"><tspan
         style="font-style:normal;font-variant:normal;font-weight:normal;font-stretch:normal;font-family:Audiowide;-inkscape-font-specification:Audiowide;fill:#4d6b7c;fill-opacity:1;stroke:none;stroke-width:1.13652027;stroke-miterlimit:4;stroke-dasharray:none;stroke-opacity:1"
         y="108.88151"
         x="106.62708"
         id="tspan4274">puertas</tspan></text>
  </g>
</svg>
