<?xml version="1.0" encoding="UTF-8" standalone="no"?>
<!-- Created with Inkscape (http://www.inkscape.org/) -->

<svg
   xmlns:dc="http://purl.org/dc/elements/1.1/"
   xmlns:cc="http://creativecommons.org/ns#"
   xmlns:rdf="http://www.w3.org/1999/02/22-rdf-syntax-ns#"
   xmlns:svg="http://www.w3.org/2000/svg"
   xmlns="http://www.w3.org/2000/svg"
   xmlns:sodipodi="http://sodipodi.sourceforge.net/DTD/sodipodi-0.dtd"
   xmlns:inkscape="http://www.inkscape.org/namespaces/inkscape"
   width="1411.4767mm"
   height="605.97437mm"
   viewBox="0 0 1411.4767 605.97436"
   version="1.1"
   id="svg5507"
   inkscape:version="0.92.3 (2405546, 2018-03-11)"
   sodipodi:docname="logoPuertas.svg">
  <defs
     id="defs5501" />
  <sodipodi:namedview
     id="base"
     pagecolor="#ffffff"
     bordercolor="#666666"
     borderopacity="1.0"
     inkscape:pageopacity="0.0"
     inkscape:pageshadow="2"
     inkscape:zoom="0.14321289"
     inkscape:cx="2381.142"
     inkscape:cy="841.51319"
     inkscape:document-units="mm"
     inkscape:current-layer="g5464"
     showgrid="false"
     inkscape:window-width="1920"
     inkscape:window-height="1015"
     inkscape:window-x="0"
     inkscape:window-y="0"
     inkscape:window-maximized="1"
     fit-margin-top="0"
     fit-margin-left="0"
     fit-margin-right="0"
     fit-margin-bottom="0" />
  <metadata
     id="metadata5504">
    <rdf:RDF>
      <cc:Work
         rdf:about="">
        <dc:format>image/svg+xml</dc:format>
        <dc:type
           rdf:resource="http://purl.org/dc/dcmitype/StillImage" />
        <dc:title></dc:title>
      </cc:Work>
    </rdf:RDF>
  </metadata>
  <g
     inkscape:label="Capa 1"
     inkscape:groupmode="layer"
     id="layer1"
     transform="translate(639.83942,216.23359)">
    <g
       id="g5464"
       transform="matrix(3.5201177,0,0,3.5201177,-1075.8596,-3600.564)"
       inkscape:export-filename="/home/l15h0/Descargas/edusi/puertas_digitales/pendrives/logoPuertasD.png"
       inkscape:export-xdpi="96"
       inkscape:export-ydpi="96">
      <g
         id="g878"
         inkscape:export-xdpi="96"
         inkscape:export-ydpi="96">
        <rect
           y="961.42535"
           x="123.86523"
           height="172.14606"
           width="400.97427"
           id="rect867"
           style="opacity:1;vector-effect:none;fill:#ffffff;fill-opacity:1;fill-rule:nonzero;stroke:none;stroke-width:0.09783071;stroke-linecap:butt;stroke-linejoin:miter;stroke-miterlimit:4;stroke-dasharray:none;stroke-dashoffset:0;stroke-opacity:1;paint-order:fill markers stroke" />
        <g
           id="g827">
          <path
             inkscape:connector-curvature="0"
             id="path2236-6-6"
             d="m 145.51183,1059.6001 c -0.36689,-1.7588 -0.055,-3.4034 0.8491,-4.4846 0.61994,-0.7416 0.81229,-0.8514 1.79107,-1.0272 0.60455,-0.1065 1.85245,0.078 2.77306,0.4106 1.49408,0.539 1.83114,0.837 3.13353,2.7699 1.23493,1.838 1.44986,2.4207 1.48069,3.7921 0.0362,2.7526 -1.50737,4.3767 -4.00932,4.2187 -2.51755,-0.1596 -5.44504,-2.923 -6.01978,-5.6824 z m 8.92838,14.618 c -0.2028,-3.9447 2.4038,-5.8433 5.87142,-4.2766 4.04813,1.8284 5.43075,8.6582 2.13916,10.5483 -1.19278,0.6864 -3.22243,0.4633 -4.61096,-0.5043 -1.53359,-1.069 -3.3125,-4.0881 -3.39919,-5.7677 z m 11.36811,16.7882 c -1.1919,-3 -0.61829,-6.0817 1.34089,-7.2068 2.24149,-1.2869 4.99762,0.1406 6.53466,3.3842 1.07861,2.2734 1.21897,4.0153 0.46133,5.7038 -1.01801,2.2714 -3.33262,2.8932 -5.49309,1.4754 -1.12278,-0.7369 -2.40368,-2.2491 -2.84379,-3.3566 z m -27.43304,-48.189 c -0.21687,-2.8971 1.22916,-4.6597 3.65477,-4.4567 1.68769,0.1409 2.7773,0.6419 4.16936,1.9158 2.25411,2.0629 3.20163,5.5391 2.04011,7.4475 -0.53143,0.8708 -1.90112,1.5413 -3.08672,1.513 -2.08132,-0.053 -3.7386,-1.162 -5.29712,-3.546 -0.78582,-1.2014 -1.44117,-2.4992 -1.47652,-2.8732 z m 38.95526,59.7537 c -0.66484,-1.8248 -0.40452,-4.9548 0.5018,-6.0081 1.00398,-1.1665 2.31311,-1.5 3.77104,-0.9608 1.12596,0.4167 1.46007,0.7762 2.73065,2.9335 1.20904,2.0209 1.44727,2.7444 1.43502,4.0988 -0.0131,1.6675 -0.89656,3.6022 -1.90996,4.1841 -2.19781,1.2603 -5.24099,-0.7187 -6.52855,-4.2475 z m -43.54506,-75.7682 c -0.18783,-1.2335 0.52787,-2.8211 1.53206,-3.3978 3.95218,-2.2693 10.76972,5.031 8.21182,8.7933 -1.77421,2.61 -6.44482,1.1031 -8.6694,-2.7977 -0.52795,-0.8828 -0.99494,-2.0618 -1.07448,-2.5978 z m 55.18772,83.9013 c -0.38436,-2.7681 0.76829,-5.5165 2.41701,-5.7603 0.39392,-0.056 1.3117,0.1224 2.04292,0.4005 1.20511,0.4591 1.44,0.7216 2.5247,2.8237 1.34408,2.6019 1.55042,4.6583 0.65795,6.533 -1.40025,2.94 -4.5033,2.3919 -6.54276,-1.1517 -0.5255,-0.8784 -1.00313,-2.1687 -1.09984,-2.8452 z m -57.20074,-98.1535 c -0.26625,-2.5974 1.00681,-3.8854 3.55364,-3.5961 2.1229,0.241 3.83408,1.5419 5.35841,4.0739 1.9116,3.192 1.42056,5.2713 -1.38826,5.8005 -2.61404,0.4923 -7.2237,-3.3549 -7.52379,-6.2783 z m 27.25113,43.274 c -0.43772,-1.4988 -0.20728,-2.9528 0.60785,-3.8134 2.58788,-2.7324 8.19151,2.9212 6.55531,6.613 -1.30026,2.9349 -6.02148,1.0895 -7.16316,-2.7996 z m 6.93286,11.1951 c -0.1563,-1.6253 0.59054,-3.0342 1.86216,-3.5112 2.97954,-1.1174 6.73207,4.2141 5.27715,7.497 -0.39588,0.8941 -1.53556,1.5331 -2.55141,1.4353 -2.01344,-0.2001 -4.34928,-2.9591 -4.58611,-5.4179 z m 8.94933,13.3279 c -1.35936,-3.3001 -0.2821,-5.9179 2.34633,-5.7033 3.88652,0.3175 5.89148,7.8436 2.39557,8.9906 -1.4157,0.4648 -3.90818,-1.263 -4.7419,-3.2873 z m -21.71126,-38.3837 c -0.0774,-0.7842 0.11708,-1.609 0.49474,-2.1156 0.58472,-0.7824 0.68522,-0.8348 1.7587,-0.9132 2.58355,-0.1944 5.76017,3.408 5.4196,6.1459 -0.14424,1.1616 -0.32162,1.4614 -1.1443,1.9336 -2.42005,1.3897 -6.18366,-1.5214 -6.52737,-5.0482 z m 47.82013,76.6785 c -0.54725,-1.9942 -0.52685,-3.8653 0.0541,-5.1252 0.67242,-1.4569 1.63625,-1.9782 3.12254,-1.6878 0.92844,0.1804 1.22322,0.4945 2.53224,2.6939 1.67672,2.8004 1.97598,4.9275 1.00673,6.9636 -0.80266,1.6849 -1.83507,2.0429 -3.75188,1.3003 -0.90046,-0.3487 -2.55904,-2.6685 -2.96513,-4.1438 z m -17.55156,-30.6933 c -0.0688,-1.8838 0.38507,-2.9185 1.51802,-3.4592 2.63927,-1.2585 6.23862,3.6341 5.14803,6.9991 -0.39404,1.2152 -1.79886,1.9906 -3.13903,1.7302 -1.48748,-0.2872 -3.45277,-3.2246 -3.53002,-5.2702 z m -34.08954,-58.0798 c -0.20069,-1.5444 0.068,-2.2721 1.04744,-2.8346 2.87285,-1.6489 7.69107,3.3117 6.43436,6.6248 -0.24159,0.6374 -0.52519,0.8964 -1.2982,1.1865 -2.14517,0.8046 -5.81557,-2.1495 -6.1836,-4.9767 z m -17.24243,-30.01662 c -0.37136,-1.94114 0.84248,-3.49317 2.657,-3.39711 2.28097,0.12142 5.7085,2.7748 6.58633,5.09903 0.93611,2.4791 0.23527,4.1766 -1.82738,4.4225 -2.71422,0.3241 -6.83203,-3.0769 -7.41595,-6.12442 z m 61.2044,98.09162 c -0.78676,-2.6488 -0.46544,-4.8822 0.80623,-5.6123 1.59153,-0.9151 4.13653,1.0703 4.89364,3.8153 0.70897,2.5692 -0.105,4.89 -1.79829,5.1273 -1.12186,0.1576 -3.45862,-1.8367 -3.90158,-3.3303 z m -46.03622,-80.6099 c 0.0395,-1.2731 0.58181,-1.8766 1.81932,-2.0245 2.82589,-0.3368 6.39784,3.7855 5.67566,6.5504 -0.41512,1.5894 -2.43203,1.8449 -4.46003,0.5649 -1.44763,-0.9132 -3.07945,-3.6511 -3.04385,-5.0859 z m 21.50276,34.9846 c -0.51655,-3.1323 1.92479,-4.1043 4.36559,-1.7379 2.63877,2.5591 1.70316,6.4209 -1.32022,5.4482 -1.1384,-0.3659 -2.83406,-2.432 -3.04537,-3.7103 z m 5.68903,9.1032 c -0.0603,-3.1285 3.09353,-3.3554 4.89132,-0.3515 2.57899,4.3096 -0.93121,7.1393 -3.77907,3.0463 -0.72146,-1.0404 -1.10376,-1.9435 -1.11225,-2.6948 z m 6.86011,10.2864 c -1.06741,-3.1537 1.19212,-4.9094 3.64083,-2.8293 1.85913,1.5786 2.37339,5.0295 0.87891,5.8877 -0.84334,0.4852 -2.03293,0.2987 -2.76897,-0.4316 -1.20857,-1.1994 -1.32919,-1.3752 -1.74881,-2.6279 z m 30.39531,50.0922 c -0.33063,-1.4408 -0.18174,-3.8592 0.28879,-4.701 0.60012,-1.0733 1.85655,-1.4967 3.02709,-1.0201 1.20242,0.4892 2.81672,2.9593 3.29058,5.034 0.33973,1.49 0.1449,3.8447 -0.39105,4.7224 -0.50527,0.8289 -1.91239,1.2595 -2.82583,0.8646 -0.95664,-0.4128 -3.05599,-3.4487 -3.38719,-4.9012 z m -47.50114,-80.6758 c 0.18594,-1.5554 1.37469,-2.1801 2.93881,-1.5444 1.5614,0.6344 3.27333,3.408 3.03215,4.9102 -0.27171,1.6873 -1.84885,2.1369 -3.60974,1.0288 -1.24292,-0.7819 -2.51097,-3.1418 -2.36335,-4.3934 z M 134.5497,989.05147 c -0.27131,-1.4472 0.32417,-2.49272 1.58991,-2.7932 2.77349,-0.65742 7.69481,3.73959 7.59135,6.78329 -0.0601,1.75871 -0.7892,2.3765 -2.62176,2.22126 -2.42228,-0.2052 -6.08442,-3.67226 -6.5595,-6.21135 z m 53.84924,90.12873 c -0.63959,-4.0248 3.09338,-4.5777 4.81204,-0.7127 1.17484,2.6456 0.18515,5.0068 -1.87541,4.4702 -0.99474,-0.2588 -2.73461,-2.4856 -2.93663,-3.7575 z m 13.801,22.9717 c -0.30182,-1.6209 0.26839,-3.4438 1.25452,-4.01 0.90768,-0.5209 2.81329,0.4612 3.68679,1.8999 0.85669,1.4306 1.33046,3.9711 0.94504,5.1672 -0.42141,1.3058 -1.62255,1.8758 -2.87678,1.3648 -1.06873,-0.4351 -2.71852,-2.8595 -3.01034,-4.4222 z m -41.18446,-70.9013 c 0.25822,-2.1621 1.90877,-2.3967 4.19648,-0.5964 2.12345,1.671 2.29306,5.1221 0.27102,5.5027 -1.85194,0.3488 -4.71987,-2.8007 -4.4675,-4.9063 z m -13.85452,-23.2986 c -0.24739,-0.9733 0.16327,-2.3116 0.82733,-2.6928 0.66774,-0.387 2.27995,-0.071 3.45705,0.6712 2.08905,1.3185 3.67578,4.9695 2.70243,6.2174 -0.92647,1.1872 -3.33691,0.6295 -5.14077,-1.1903 -1.2908,-1.3024 -1.49676,-1.6375 -1.85024,-3.0029 z m 48.91465,78.2633 c -0.30928,-1.379 -0.13512,-2.9158 0.38568,-3.3787 0.85685,-0.7621 1.66732,-0.646 2.85492,0.4087 2.22416,1.9752 2.28041,6.1514 0.0847,6.2709 -1.20708,0.066 -2.95973,-1.674 -3.32532,-3.3009 z m -36.96862,-64.4543 c 0.15681,-1.2447 1.47163,-1.8043 2.88789,-1.2288 2.45789,0.9987 3.96386,5.239 2.13623,6.0145 -1.15092,0.4888 -3.12188,-0.6502 -4.16597,-2.4065 -0.528,-0.8829 -0.90873,-1.9568 -0.85815,-2.3792 z m 21.93391,35.9274 c -0.17701,-2.0449 1.29098,-2.7847 2.99159,-1.5081 1.59329,1.1957 2.11566,4.1232 0.86873,4.839 -1.29031,0.7406 -3.68779,-1.3278 -3.86046,-3.3312 z m -4.70346,-8.5418 c 0.31107,-3.012 4.5386,-0.9051 4.71916,2.3516 0.0674,1.218 -1.15197,2.07 -2.30426,1.6101 -0.88121,-0.3528 -2.51086,-3.0256 -2.42139,-3.9568 z m 10.12792,16.4107 c -0.72101,-3.1261 1.88786,-3.8267 3.62504,-0.9738 0.95796,1.5998 0.97149,3.0115 0.003,3.6953 -1.09675,0.7753 -3.18357,-0.7895 -3.62827,-2.7215 z m -13.85663,-24.0069 c -0.19965,-2.0497 1.73607,-2.5623 3.37128,-0.893 1.6947,1.73 1.82804,4.3185 0.23287,4.5124 -1.30985,0.1594 -3.44415,-1.9854 -3.60415,-3.6194 z m 38.36497,63.437 c -0.14074,-2.7955 1.39782,-4.0138 3.30834,-2.6202 2.41864,1.7641 3.12697,6.9299 1.10994,8.0881 -0.10816,0.06 -0.67044,-0.034 -1.25661,-0.2086 -1.44234,-0.4306 -3.05331,-3.1109 -3.15085,-5.2653 z m 10.4597,17.0956 c -0.35321,-2.531 0.24777,-4.3673 1.5504,-4.7364 2.54925,-0.7222 5.64444,5.2483 4.56268,8.8012 -0.42638,1.3991 -1.66568,2.021 -2.84141,1.4243 -1.14442,-0.5791 -3.02778,-3.7397 -3.28214,-5.4845 z m -17.99295,-31.4572 c -0.83038,-3.909 2.39485,-4.4703 4.16503,-0.7246 0.85618,1.8124 0.74203,3.5175 -0.28462,4.2458 -1.25718,0.8913 -3.34604,-1.0043 -3.88041,-3.5212 z m -54.88541,-92.45201 c 0.0391,-0.51491 0.18415,-1.08145 0.32271,-1.2592 1.22407,-1.56876 5.36532,0.71408 6.43618,3.54791 0.97935,2.5923 -0.31295,3.9661 -2.81014,2.9882 -1.77271,-0.6948 -4.06376,-3.75582 -3.94875,-5.27691 z m 43.61786,72.79451 c 0.0685,-1.2977 0.51192,-1.7564 1.54542,-1.5984 1.27252,0.194 2.43328,1.5654 2.66293,3.1447 0.24797,1.7091 -0.34031,2.5482 -1.65357,2.3563 -1.13765,-0.1666 -2.63178,-2.4491 -2.55598,-3.902 z m -22.2086,-37.7041 c -0.0744,-2.1481 2.66701,-1.9985 3.99544,0.2186 0.77726,1.3004 0.8304,3.018 0.10353,3.4353 -1.2889,0.7399 -4.03209,-1.7049 -4.09897,-3.6539 z m -31.20622,-52.70363 c -0.38099,-1.97345 1.05377,-2.84308 3.32199,-2.01262 2.05899,0.75416 3.53144,2.14664 4.63977,4.38869 0.77533,1.56677 0.87757,2.08682 0.54049,2.75825 -0.55563,1.10899 -1.54819,1.39894 -3.04142,0.88787 -2.41151,-0.82564 -5.01009,-3.69155 -5.46053,-6.02165 z m 19.97156,33.14853 c -0.0195,-0.5244 0.16409,-1.2092 0.41521,-1.5256 1.31445,-1.6586 5.31781,1.4777 5.22887,4.0965 -0.0478,1.3995 -0.47789,1.8102 -1.73467,1.6551 -1.85677,-0.2289 -3.82757,-2.36 -3.90941,-4.226 z m 39.48532,62.7893 c 0.041,-1.3213 0.51711,-1.8148 1.64327,-1.7027 1.91566,0.1903 3.38887,4.7833 1.75302,5.4671 -1.44191,0.6004 -3.46202,-1.6371 -3.39629,-3.7644 z m -29.90524,-51.1501 c 0.3094,-2.0484 2.56341,-1.6306 3.98325,0.7378 1.2008,2.0033 0.51465,3.615 -1.31611,3.0924 -1.04556,-0.2985 -2.81636,-2.8417 -2.66801,-3.8297 z m 14.16953,23.1173 c -0.16156,-0.857 0.0811,-1.8363 0.52509,-2.0912 0.49434,-0.2911 1.96357,0.7534 2.5715,1.8215 0.61667,1.1086 0.67304,2.3231 0.10001,2.6521 -0.94341,0.5419 -2.91622,-0.9283 -3.1966,-2.3824 z m 3.6165,5.9461 c -0.14025,-1.1586 0.28963,-1.6174 1.36246,-1.4535 1.72422,0.2631 3.01861,3.7158 1.68111,4.4836 -0.48718,0.287 -2.10921,-0.6434 -2.55137,-1.4581 -0.23474,-0.3812 -0.43466,-1.1012 -0.4922,-1.572 z m 4.30123,5.6697 c -0.0452,-1.7117 2.07014,-1.5861 3.13051,0.1854 0.57712,0.9611 0.48812,2.6717 -0.15536,3.0413 -1.05,0.6035 -2.92826,-1.4339 -2.97515,-3.2267 z m 20.10027,34.0166 c -0.064,-2.5741 0.36651,-3.4526 1.65852,-3.3837 0.98868,0.052 3.11799,3.5717 2.95864,4.8546 -0.33472,2.4689 -1.98767,2.6729 -3.54739,0.4377 -0.57894,-0.8194 -1.05978,-1.6787 -1.0465,-1.922 z m -31.26857,-53.3511 c 0.15121,-0.7646 0.90386,-1.1499 1.68479,-0.8618 0.74443,0.2749 2.11944,2.312 2.17361,3.2231 0.0465,0.7664 -0.99547,1.4169 -1.7953,1.1232 -0.7505,-0.2767 -2.21092,-2.7409 -2.07862,-3.4737 z m 39.85712,66.8719 c -0.21268,-1.1579 0.0482,-3.2872 0.45012,-3.6761 1.8074,-1.7463 4.92181,2.0162 4.64509,5.6113 -0.14865,1.9324 -0.9266,2.6224 -2.33856,2.075 -0.84829,-0.329 -2.52983,-2.7754 -2.75568,-4.0108 z m -59.52718,-101.1712 c -0.0939,-0.9928 0.37425,-1.8872 1.03722,-1.98 1.10116,-0.1545 2.75935,0.9977 3.71791,2.5829 0.99772,1.6689 1.01172,2.8442 0.0168,3.4156 -1.22283,0.7029 -4.59214,-2.1347 -4.7719,-4.0185 z m 35.56803,59.3439 c -0.13183,-1.0748 0.53284,-1.8015 1.47151,-1.6101 0.85822,0.1751 2.12097,2.2547 2.01091,3.2688 -0.30883,2.4475 -3.12591,1.0885 -3.46332,-1.6697 z m 9.12019,15.101 c -0.038,-1.506 0.3525,-1.9776 1.49688,-1.8078 1.94596,0.2891 3.40167,4.9608 1.6973,5.4432 -1.3072,0.3706 -3.14667,-1.7222 -3.19418,-3.6354 z m -27.07493,-45.3303 c -4.1e-4,-0.156 -0.0694,-0.5861 -0.14909,-0.9552 -0.21748,-0.9977 0.52975,-1.5465 1.56021,-1.1473 1.58427,0.6146 2.73992,3.5808 1.64092,4.2119 -0.70656,0.4091 -3.04233,-1.2071 -3.05262,-2.1095 z m -25.70058,-44.31788 c -0.0689,-1.23795 0.92942,-2.02566 2.16043,-1.70525 3.08023,0.80207 5.78809,5.4273 3.9389,6.73106 -0.87337,0.61466 -1.88534,0.35463 -3.53113,-0.91098 -1.4901,-1.14679 -2.49473,-2.75451 -2.57242,-4.11248 z m 16.28165,27.35468 c -0.13611,-1.1273 0.24407,-1.5614 1.31836,-1.5044 1.63472,0.087 3.73091,3.1054 3.0692,4.4233 -0.36037,0.7196 -1.5078,0.7357 -2.51996,0.041 -1.0549,-0.7262 -1.72756,-1.7908 -1.86867,-2.959 z m 62.47444,103.7644 c -0.56065,-1.7741 -0.61767,-3.2021 -0.17845,-4.5183 0.65779,-1.9724 1.75136,-2.1187 3.40332,-0.4546 2.50362,2.5211 3.03983,8.3273 0.8273,8.9544 -1.25156,0.3545 -3.32484,-1.6828 -4.05219,-3.9817 z m -30.15759,-51.9226 c -0.0465,-0.4651 0.0624,-1.0831 0.23832,-1.3719 0.25829,-0.4219 0.49159,-0.4807 1.2114,-0.2931 1.85809,0.4839 2.5822,4.5756 0.79298,4.4814 -0.79296,-0.043 -2.13712,-1.7302 -2.2427,-2.8164 z m -24.50765,-42.4646 c 0.29523,-1.4908 1.97197,-1.0718 3.07422,0.7701 0.703,1.1747 0.78889,2.2326 0.20725,2.5666 -1.03325,0.5942 -3.55338,-1.9683 -3.28152,-3.3367 z m 11.46349,18.4494 c 0.0229,-1.4101 1.49305,-1.1713 2.42954,0.3933 0.58549,0.9761 0.64828,2.0597 0.13816,2.3526 -0.84193,0.4843 -2.58964,-1.3846 -2.5677,-2.7459 z m 3.00999,5.281 c -0.093,-0.5712 0.98341,-1.2229 1.52548,-0.9218 0.64014,0.3556 1.54969,2.078 1.45337,2.7373 -0.11327,0.7345 -0.83693,1.2022 -1.38685,0.8974 -0.44704,-0.2485 -1.47624,-2.0027 -1.57391,-2.7199 z m -45.74707,-77.72278 c 0.21737,-2.95218 4.72325,-1.41032 7.10335,2.43154 1.16061,1.85222 1.32041,3.53136 0.4092,4.05465 -0.7112,0.41119 -2.29418,0.11188 -3.56856,-0.66902 -1.66759,-1.02201 -4.03982,-4.52011 -3.94542,-5.81638 z m 49.30527,82.68858 c 0.0138,-0.7524 0.76399,-1.2895 1.34777,-0.9669 0.22006,0.1222 0.67639,0.687 1.01532,1.253 0.73143,1.2233 0.78214,1.8397 0.17402,2.1889 -1.00159,0.5743 -2.56422,-0.9495 -2.54009,-2.4752 z m 16.5421,27.7637 c -0.1813,-1.1494 0.0342,-2.1656 0.52452,-2.4469 1.62359,-0.9318 4.11917,3.475 2.87487,5.0714 -0.81601,1.045 -3.09257,-0.7144 -3.39745,-2.6256 z m -25.51301,-43.8645 c 0.57739,-0.9464 1.35886,-0.6495 2.26117,0.8575 0.94139,1.5753 0.76179,2.5094 -0.43744,2.2705 -1.00099,-0.199 -2.27592,-2.3863 -1.81926,-3.1305 z m 32.39534,54.2205 c -0.0153,-0.6186 0.16387,-1.4032 0.39529,-1.7421 1.50964,-2.2119 5.09202,2.9934 3.73113,5.4241 -0.37706,0.674 -0.4464,0.7136 -1.17997,0.6781 -1.0638,-0.056 -2.9111,-2.7876 -2.94597,-4.3559 z m -48.82906,-82.7513 c 0.0272,-1.6767 2.44595,-1.2233 3.65985,0.6832 1.01416,1.5889 1.09336,2.5239 0.26525,2.9992 -0.44791,0.2648 -0.96499,0.2332 -1.58548,-0.082 -1.01108,-0.5119 -2.35597,-2.5817 -2.33974,-3.6005 z m 29.35972,48.7091 c 0.24376,-0.6899 0.25323,-0.6952 0.98654,-0.566 0.99616,0.1754 1.97141,1.8733 1.66665,2.8993 -0.23203,0.7801 -0.2737,0.8108 -0.91867,0.6786 -0.91902,-0.1871 -2.04202,-2.1392 -1.73203,-3.0142 z m 7.39922,12.5756 c 0.15446,-1.5159 1.7263,-1.3797 2.69129,0.2329 0.62702,1.0481 0.73259,2.8788 0.18309,3.1943 -0.95627,0.5492 -3.02847,-1.9215 -2.87438,-3.4272 z m -43.42872,-73.1751 c -0.24613,-2.56523 2.83478,-1.98722 4.58693,0.8607 1.4806,2.3851 0.6817,3.9199 -1.542,2.9885 -1.25504,-0.5253 -2.92951,-2.6417 -3.04493,-3.8492 z m 13.38181,22.6473 c -0.0714,-0.3013 0.0291,-0.8052 0.21854,-1.1159 0.47163,-0.7716 1.44048,-0.5651 2.49258,0.5352 1.47933,1.5456 1.0421,4.0476 -0.55187,3.1562 -0.78711,-0.4402 -2.00235,-1.8898 -2.15925,-2.5755 z m 7.71191,12.5732 c 0.16028,-0.8096 0.54528,-0.9347 1.45138,-0.4713 0.90373,0.4623 1.74873,2.3005 1.38289,3.0167 -0.62488,1.2265 -3.1342,-1.0285 -2.83287,-2.5463 z m 43.59532,72.0786 c -0.42712,-1.4275 -0.3467,-2.6938 0.22531,-3.6322 0.32778,-0.537 0.48995,-0.5954 1.29079,-0.4741 1.89312,0.2893 3.91364,5.2497 2.88613,7.0865 -0.59954,1.0721 -1.33305,1.163 -2.42727,0.3025 -1.07288,-0.8444 -1.42243,-1.4252 -1.96631,-3.2879 z M 201.51558,1064.48 c 0.18482,-0.5624 0.33046,-0.6787 0.82271,-0.6549 0.82969,0.039 2.14853,2.3111 1.82103,3.1413 -0.2409,0.6122 -0.2861,0.6379 -0.90388,0.5189 -0.87973,-0.1791 -2.01598,-2.1397 -1.7338,-2.9971 z m -20.22333,-34.4001 c 0.21903,-0.6507 0.25129,-0.6653 1.07134,-0.4812 1.68649,0.3811 2.59958,3.5589 0.99956,3.485 -0.86229,-0.041 -2.34454,-2.1911 -2.06859,-3.0062 z M 155.4528,985.6366 c 0.0157,-0.8593 0.70888,-1.42983 1.62566,-1.33883 1.27766,0.12711 2.86363,1.44753 3.9808,3.31457 0.84246,1.405 0.98446,1.92233 0.72278,2.61254 -0.32179,0.8488 -0.33802,0.85982 -1.261,0.85112 -0.5142,-0.005 -1.44271,-0.36248 -2.0637,-0.79571 -1.2126,-0.84572 -3.02375,-3.64365 -3.00408,-4.64465 z m 54.28888,90.3721 c 0.1361,-1.9342 1.67848,-1.6148 2.7091,0.5611 0.73939,1.5634 0.49125,2.8215 -0.54683,2.7667 -0.83821,-0.045 -2.24111,-2.2044 -2.16292,-3.3275 z m 5.90519,10.2692 c -0.44727,-1.9434 0.38806,-3.2097 1.65153,-2.5029 2.04,1.1409 2.56905,5.2848 0.65889,5.1572 -0.79206,-0.053 -2.04101,-1.4883 -2.31042,-2.6543 z m -40.44263,-69.1106 c 0.0148,-0.3621 0.24283,-0.7831 0.50271,-0.9323 1.07593,-0.6199 3.39653,1.9904 2.95706,3.3254 -0.20766,0.6315 -0.28359,0.6824 -0.9724,0.6497 -0.88658,-0.041 -2.53313,-2.0561 -2.48773,-3.0435 z m 30.39662,50.4025 c 0.24358,-0.6896 0.25304,-0.6949 0.98587,-0.5656 0.87404,0.1534 1.52989,1.1267 1.58819,2.3521 0.042,0.9412 -0.557,1.507 -1.21212,1.1441 -0.76568,-0.4251 -1.60648,-2.2333 -1.35851,-2.9321 z M 169.5943,1007.159 c -0.10639,-1.0062 0.77025,-1.4936 1.89911,-1.0566 1.77403,0.6883 3.19192,4.1068 1.8791,4.5307 -1.16005,0.3757 -3.61238,-1.8803 -3.77888,-3.4756 z m 11.16986,18.5747 c 0.0746,-1.6367 1.39694,-1.4 2.50279,0.4482 0.67664,1.1298 0.41171,2.0811 -0.54197,1.9472 -0.75011,-0.1054 -1.9955,-1.627 -1.96082,-2.3954 z m 42.21793,69.6901 c -0.27299,-1.4021 -0.0931,-2.147 0.617,-2.5547 2.08007,-1.1949 4.6645,4.6337 2.70965,6.1107 -0.99471,0.751 -2.88062,-1.2653 -3.32665,-3.556 z m 13.79388,21.9611 c -0.28655,-1.9394 0.0179,-3.198 0.89593,-3.702 0.98568,-0.5655 2.00314,0.1109 3.2074,2.1345 2.12093,3.5459 1.46528,7.9094 -1.0271,6.9122 -0.98693,-0.3945 -2.8132,-3.5675 -3.07215,-5.347 z M 164.78338,996.045 c -0.95269,-2.88232 1.77143,-2.92402 3.83991,-0.0587 1.24305,1.72298 1.42637,2.99063 0.47889,3.39295 -1.31836,0.55841 -3.61887,-1.21808 -4.3188,-3.33424 z m 44.88568,73.6183 0.31841,-0.8404 0.87048,0.5563 c 0.87288,0.5572 1.32,1.6455 1.15264,2.8037 -0.086,0.5875 -0.10535,0.5988 -0.76713,0.4748 -1.02347,-0.2084 -1.94991,-1.9711 -1.56649,-2.9814 z m 4.64592,8.311 c -0.22425,-1.849 1.388,-2.0295 2.43929,-0.2735 0.62327,1.0441 0.64613,2.7071 0.0393,3.0556 -0.84658,0.487 -2.27767,-1.1197 -2.47859,-2.7825 z M 150.83484,970.08247 c 0.16575,-1.02775 0.47512,-1.24813 1.66338,-1.18526 2.06931,0.11047 5.62343,3.81956 5.75642,6.00841 0.12505,2.06613 -1.92804,2.28896 -4.27549,0.46386 -1.62906,-1.26628 -3.33143,-4.12828 -3.15887,-5.27817 z m 25.47146,43.09443 c -0.21641,-1.0029 0.67572,-1.6821 1.5602,-1.1865 0.73561,0.41 1.90131,2.1817 1.90557,2.8896 0.003,0.5999 -0.76139,1.0129 -1.41561,0.7648 -0.7782,-0.2956 -1.86238,-1.6005 -2.04903,-2.4674 z m 4.67178,7.5863 c 0.49364,-0.6328 1.6151,-0.1406 2.30469,1.0116 0.7641,1.2769 0.45225,2.3077 -0.5833,1.9258 -0.81194,-0.2995 -2.08468,-2.4717 -1.70882,-2.9445 z m 39.47294,65.3712 c -0.0838,-0.4805 0.002,-1.1737 0.18832,-1.5384 0.31397,-0.615 0.39304,-0.6531 1.09014,-0.5241 1.06591,0.1985 2.4193,2.9363 2.08546,4.2165 -0.2241,0.8574 -0.31309,0.9413 -0.96054,0.9069 -0.83187,-0.044 -2.17972,-1.7624 -2.40236,-3.0624 z m 11.46806,18.0265 c -0.0574,-0.6487 0.0336,-1.4967 0.2075,-1.8876 1.35294,-3.0543 5.47901,2.7797 4.19904,5.9379 l -0.35217,0.8685 -0.95828,-0.1251 c -0.79422,-0.104 -1.13156,-0.4236 -1.97298,-1.8708 -0.57123,-0.953 -1.0643,-2.2752 -1.12311,-2.9229 z m -60.02766,-101.3978 c 0.0412,-0.8719 0.49244,-1.0947 1.62329,-0.7981 1.27262,0.331 2.92596,3.0326 2.44434,3.9952 -0.309,0.617 -0.39507,0.6471 -1.23898,0.4277 -1.05341,-0.2742 -2.87407,-2.6077 -2.82714,-3.622 z m 41.2579,68.4283 c 0.01,-0.5092 0.78987,-0.8984 1.26816,-0.6334 1.29887,0.7193 1.78137,3.8306 0.53883,3.4867 -0.48051,-0.1341 -1.81815,-2.2445 -1.80652,-2.854 z m -52.65268,-89.13445 c 0.278,-1.82287 2.30011,-1.46357 4.4286,0.78705 1.13272,1.1951 1.40073,1.68552 1.49142,2.68105 0.14175,1.65588 -0.57159,2.14006 -2.20346,1.49531 -1.59441,-0.62908 -3.90333,-3.71841 -3.71273,-4.96697 z m 21.15498,35.62835 c -0.17045,-1.504 1.35863,-1.292 2.4309,0.3377 0.61847,0.9362 0.34823,2.0261 -0.47205,1.9106 -0.7325,-0.1028 -1.86337,-1.4012 -1.95885,-2.2483 z m 36.71402,60.3809 c -0.0217,-0.8026 0.5861,-1.3706 1.25624,-1.1758 0.59972,0.1743 1.81454,2.4859 1.69865,3.2317 -0.13481,0.8732 -0.86257,1.2744 -1.4782,0.8063 -0.71314,-0.5363 -1.45546,-1.982 -1.48332,-2.8675 z m 9.68453,16.2872 c -0.2748,-1.1738 -0.0444,-2.584 0.46857,-2.8783 1.50926,-0.867 4.1817,3.9404 3.1418,5.6478 -0.28042,0.4618 -0.46259,0.5563 -0.98901,0.5285 -0.8309,-0.045 -2.28966,-1.8812 -2.62012,-3.3001 z m -50.03831,-85.0914 c 0.0216,-1.3177 1.24474,-1.2746 2.47543,0.087 0.92782,1.0245 1.13506,2.4631 0.39169,2.702 -1.04824,0.3372 -2.88875,-1.4535 -2.86712,-2.7895 z m -9.69924,-17.43572 c -0.12591,-0.81114 0.7067,-1.24768 1.77108,-0.93006 1.867,0.55969 3.86469,3.84467 3.01108,4.94203 -0.35491,0.45256 -1.55834,0.26392 -2.4434,-0.38543 -0.79889,-0.58557 -2.20412,-2.77063 -2.33566,-3.63114 z m 48.41089,79.81592 c 0.0124,-0.702 0.0297,-0.7169 0.73014,-0.578 0.93741,0.1872 1.96063,1.9192 1.67131,2.7933 -0.20675,0.5995 -0.30938,0.6751 -0.76132,0.5608 -0.6627,-0.1654 -1.63951,-1.8422 -1.61521,-2.7917 z m 7.95965,13.1702 c -0.0753,-1.403 0.76702,-1.9048 1.84286,-1.0973 1.33122,0.9997 1.9835,4.0464 0.98958,4.617 -0.92173,0.5287 -2.73544,-1.7251 -2.83239,-3.5196 z m -41.66331,-70.9314 c 0.4455,-0.5702 1.07859,-0.36 1.96228,0.6526 0.53114,0.6084 0.79529,1.2209 0.7211,1.6897 -0.10895,0.7069 -0.13941,0.729 -0.80129,0.5939 -0.82225,-0.1675 -2.27446,-2.4339 -1.8838,-2.9357 z m 59.36656,99.5269 c -0.29083,-1.624 -0.25461,-3.1346 0.0902,-3.7507 0.35755,-0.6394 0.45607,-0.6982 1.1076,-0.671 2.23305,0.1183 4.60212,5.8723 3.34416,8.1202 -0.39684,0.7109 -0.46338,0.7499 -1.19779,0.7212 -0.61339,-0.032 -1.05207,-0.4604 -2.01678,-1.9699 -0.68536,-1.0564 -1.28991,-2.1534 -1.32817,-2.446 z M 174.83242,999.78753 c -0.0688,-0.58036 0.59731,-0.98904 1.42453,-0.87174 0.94791,0.13344 2.91286,3.04351 2.62598,3.88981 -0.22349,0.6603 -0.26294,0.6749 -1.20545,0.43 -0.96327,-0.2509 -2.71523,-2.3738 -2.84397,-3.44587 z m 47.15791,77.79967 c 0.0153,-0.8582 0.38277,-1.2484 1.08292,-1.1499 0.78186,0.1104 2.04187,2.7498 1.71031,3.59 -0.23162,0.5871 -0.28692,0.6178 -0.90619,0.4846 -0.73126,-0.1489 -1.90874,-1.9744 -1.891,-2.9326 z m 15.06414,24.7215 c -0.68027,-2.434 -0.33369,-4.3057 0.78568,-4.2458 0.8762,0.046 2.23728,1.6193 2.77193,3.2027 1.23146,3.6494 -0.44124,5.5501 -2.49543,2.8357 -0.48895,-0.6473 -0.968,-1.4535 -1.06983,-1.7882 z M 158.1704,969.44214 c -0.30582,-1.27764 -0.24864,-1.6406 0.31389,-1.96373 1.3533,-0.77684 3.88064,0.84088 5.49897,3.52026 1.10746,1.85094 1.25494,3.18665 0.38506,3.68597 -1.39837,0.80193 -5.5995,-2.75119 -6.19792,-5.2425 z m 22.17337,37.05056 c 0.0261,-1.6328 1.71041,-0.9826 2.73291,1.0538 0.53169,1.0524 0.56544,1.4295 0.16316,1.7323 -0.90424,0.6806 -2.92134,-1.2588 -2.89609,-2.7861 z m 39.42961,65.1628 c 0.0461,-1.1322 0.88785,-1.0751 1.7428,0.1191 0.76976,1.0742 0.77192,2.5245 0.004,2.4835 -0.54355,-0.03 -1.77711,-1.8666 -1.7454,-2.6039 z m 12.44397,20.0699 c -0.3153,-1.3642 -0.16615,-2.2785 0.42052,-2.6153 0.4965,-0.2922 1.88251,0.5649 2.45215,1.5103 0.53591,0.8971 0.93115,3.008 0.69204,3.7331 -0.19819,0.601 -0.279,0.6537 -0.95074,0.6227 -0.8899,-0.041 -2.27111,-1.7587 -2.61417,-3.2512 z M 166.04681,980.3725 c -0.12194,-1.26824 0.82901,-1.69869 2.2744,-1.02905 0.88584,0.41077 1.4563,1.03082 2.40178,2.6111 1.32585,2.21802 1.34179,3.01729 0.0554,3.18879 -1.50298,0.19951 -4.54891,-2.8714 -4.73128,-4.7703 z m 18.78651,31.4809 c 0.25616,-0.8411 1.5229,-0.4262 2.20242,0.7214 1.19972,2.0013 -0.13888,2.7323 -1.56282,0.8521 -0.44068,-0.5783 -0.7193,-1.292 -0.63931,-1.574 z m 43.373,70.8609 c -0.0245,-0.9473 0.96608,-1.6022 1.64766,-1.0888 1.09381,0.8236 1.83564,2.9453 1.47606,4.2304 -0.42964,1.5391 -3.07061,-1.1172 -3.12372,-3.1416 z m -55.38288,-93.20448 c 0.4227,-2.12392 4.48893,0.87285 4.60573,3.39322 0.0497,1.08063 -0.46667,1.29893 -1.80954,0.76523 -1.13362,-0.45075 -2.98506,-3.20533 -2.79556,-4.15909 z m 5.7081,9.0329 c -0.29179,-0.87091 0.18092,-1.62402 0.95166,-1.51562 0.73966,0.10445 2.30182,1.81753 2.66233,2.92092 0.33376,1.02168 -0.49163,1.81268 -1.36573,1.30878 -0.75872,-0.4393 -1.97697,-1.90723 -2.24826,-2.71408 z m 46.53375,77.53608 c 0.0221,-1.3522 1.39557,-1.3047 2.23216,0.077 0.88528,1.4796 0.41221,3.4194 -0.69378,2.8067 -0.58705,-0.3257 -1.55257,-2.1306 -1.54112,-2.8823 z m -41.96901,-71.3094 c -0.0275,-0.258 0.14179,-0.5822 0.38348,-0.7208 1.00304,-0.5778 3.21765,1.8352 2.81992,3.0723 -0.18089,0.561 -0.26474,0.6162 -0.82304,0.5372 -0.65112,-0.091 -2.28848,-2.0791 -2.38059,-2.8891 z m 39.4481,65.4182 c 0.28215,-0.8763 0.83114,-0.7206 1.56479,0.4473 1.25437,1.9981 0.35286,3.197 -0.9926,1.3188 -0.50292,-0.703 -0.70848,-1.3398 -0.57176,-1.7663 z m -35.36964,-59.6067 c 0.0301,-0.7694 0.46625,-1.1002 1.03371,-0.7869 0.61642,0.3415 1.7955,2.4686 1.54968,2.7858 -0.6155,0.7894 -2.62767,-0.7721 -2.57995,-2.0027 z m 59.47311,97.1327 c -0.81182,-2.4522 -0.39918,-4.6638 0.85843,-4.5968 1.30464,0.069 3.65035,4.2234 3.57877,6.3367 -0.12145,3.5494 -3.06678,2.3937 -4.43666,-1.7402 z m -6.11888,-10.6898 c -0.28444,-1.269 -0.14463,-2.9209 0.26848,-3.1584 0.88712,-0.5095 1.73077,0.171 2.77634,2.2386 0.67459,1.3374 0.96873,2.3681 0.86853,3.0535 -0.17675,1.2033 -1.04048,1.7235 -1.86276,1.1198 -0.60243,-0.4398 -1.87077,-2.4567 -2.05094,-3.2552 z m -12.85613,-22.4688 c -0.42178,-2.1741 0.97101,-2.2649 2.01806,-0.1312 0.68149,1.3906 0.59123,2.3952 -0.20946,2.3241 -0.64342,-0.058 -1.62485,-1.2468 -1.80781,-2.1928 z m 3.5313,5.6729 c -0.0572,-1.2327 0.48289,-1.6989 1.39099,-1.201 0.78627,0.4318 1.74084,2.5338 1.59044,3.5032 -0.32857,2.1295 -2.86893,0.1702 -2.98315,-2.3012 z m 4.15814,6.8518 c 0.0626,-1.1834 0.38166,-1.5772 1.18478,-1.4645 1.4159,0.1992 3.09898,4.9066 1.98499,5.5463 -1.02709,0.5908 -3.26465,-2.2911 -3.16977,-4.0818 z m -10.8367,-18.2719 c -0.10702,-0.7517 0.74195,-0.9983 1.39551,-0.4049 0.75278,0.6841 1.07391,2.5698 0.46908,2.7632 -0.44904,0.1433 -1.74258,-1.4924 -1.86459,-2.3583 z M 165.72927,968.1784 c 0.3701,-0.91773 0.38031,-0.92482 1.13706,-0.79039 2.02902,0.35771 5.43817,4.29765 5.16739,5.97265 -0.34828,2.15261 -3.06326,1.0624 -5.20744,-2.09168 -1.33819,-1.96452 -1.438,-2.24652 -1.09641,-3.0895 z m 6.45418,11.38854 c 0.18096,-0.91262 1.02562,-1.16813 2.10697,-0.63776 1.44809,0.70961 3.53672,4.13414 3.07949,5.04895 -0.18231,0.36404 -0.52862,0.69231 -0.76855,0.72498 -1.31395,0.18432 -4.69388,-3.7464 -4.41813,-5.13732 z m 5.60634,9.36812 c 0.17,-0.85596 0.67255,-0.99297 1.71281,-0.46621 1.00444,0.50889 2.55787,2.67662 2.64151,3.6905 0.0755,0.90203 -0.79529,1.23581 -1.84161,0.70606 -1.04787,-0.53074 -2.68182,-3.08422 -2.51434,-3.92944 z m 4.64117,8.06326 c 0.0133,-0.6605 0.86287,-0.86593 1.6359,-0.39582 0.82051,0.49921 2.10326,2.42211 2.10963,3.15688 0.003,0.73692 -0.79483,0.97292 -1.61149,0.47682 -0.76341,-0.46501 -2.14347,-2.56156 -2.13052,-3.23998 z m 4.13694,6.48258 c 0.45784,-0.7511 1.54687,-0.1917 2.38738,1.2276 1.3956,2.3332 -0.0986,2.9174 -1.72039,0.6702 -0.7385,-1.0211 -0.90131,-1.5083 -0.66724,-1.8985 z m 3.31862,5.79 c 0.18101,-0.743 1.26768,-0.164 2.00519,1.069 0.64817,1.0812 0.4623,1.884 -0.37983,1.6492 -0.60088,-0.1668 -1.77061,-2.1216 -1.62425,-2.7188 z m 36.44685,56.8912 c 0.44708,-0.7325 0.82892,-0.5772 1.54227,0.6265 0.70208,1.173 0.6849,1.964 -0.033,2.0653 -0.6518,0.091 -1.87526,-2.0917 -1.51745,-2.6872 z m -33.32882,-55.9965 c -0.31792,-1.1386 -0.22735,-1.3346 0.53508,-1.182 1.26608,0.2539 2.34509,2.8998 1.15678,2.8368 -0.40921,-0.022 -1.54841,-1.1368 -1.69186,-1.6548 z m 36.54483,60.5325 c 0.20687,-0.5995 0.30933,-0.6752 0.76143,-0.5609 1.05379,0.2632 2.1845,3.3233 1.39547,3.7763 -0.78679,0.4537 -2.52725,-2.1396 -2.15593,-3.2136 z m 3.70463,5.6854 c -0.021,-0.8555 0.61731,-1.3939 1.2417,-1.0474 0.75617,0.4182 1.66366,2.3292 1.62254,3.417 -0.0391,1.0358 -0.0745,1.08 -0.75974,0.9445 -0.8269,-0.1643 -2.07265,-2.1269 -2.10243,-3.3155 z m -43.18556,-72.8438 c 0.49015,-0.6279 1.25903,-0.3148 2.12634,0.8648 1.01946,1.3908 0.93741,2.272 -0.19792,2.0656 -0.86278,-0.1574 -2.34002,-2.4021 -1.92604,-2.9318 z m 47.67809,79.3477 c -0.019,-0.619 -0.0486,-1.149 -0.063,-1.1801 -0.0175,-0.031 0.18372,-0.1777 0.44284,-0.3275 0.64289,-0.3736 1.3669,0.1732 2.21905,1.6692 0.84446,1.5181 1.02641,3.0469 0.37213,3.4226 -1.10633,0.6372 -2.90619,-1.535 -2.97204,-3.5858 z m -50.98541,-85.51447 c 0.0737,-1.60074 1.58555,-1.06125 2.82401,1.00802 1.48618,2.48315 -0.22841,3.14435 -2.01121,0.77505 -0.46259,-0.61777 -0.84453,-1.4112 -0.81091,-1.78427 z m 56.13398,92.79757 c -0.0613,-2.4381 1.43838,-2.5235 2.84786,-0.1623 0.98834,1.6494 1.28477,3.0095 0.90657,4.0864 -0.24414,0.6937 -0.25453,0.6998 -0.98945,0.5677 -0.90459,-0.1592 -2.73212,-3.1276 -2.7673,-4.4939 z M 182.97023,989.35033 c 0.12769,-0.37415 0.43312,-0.7049 0.6832,-0.73994 1.22984,-0.17266 3.8126,3.12596 3.41544,4.36102 -0.2005,0.62348 -0.25432,0.6428 -1.15621,0.40703 -1.27617,-0.3321 -3.27056,-3.06267 -2.94309,-4.0293 z m 44.4257,74.23327 c 0.10118,-0.9827 0.47331,-1.0679 1.24471,-0.2857 1.26306,1.2826 0.94871,3.4038 -0.3336,2.2414 -0.80997,-0.7323 -0.99682,-1.133 -0.90884,-1.957 z m 21.85032,36.6262 c -0.65243,-2.3258 -0.13204,-4.1102 1.0949,-3.7526 2.12886,0.6199 4.14475,6.7135 2.5279,7.6419 -0.325,0.1807 -0.78378,0.2277 -1.02729,0.093 -0.78726,-0.4366 -2.216,-2.6275 -2.59494,-3.9824 z M 178.53143,980.64231 c 0.0407,-0.89475 0.76703,-1.25123 1.70744,-0.83654 0.94581,0.41648 2.83869,2.87477 3.1668,4.11255 0.29195,1.1084 -0.5304,1.58143 -1.8058,1.03715 -1.01876,-0.43311 -3.11159,-3.37578 -3.06763,-4.31426 z m 17.38882,29.14519 c 0.21501,-0.7809 0.73714,-0.5661 1.69946,0.7016 0.57687,0.764 0.77694,1.3 0.58909,1.5441 -0.16188,0.2076 -0.41693,0.3721 -0.56845,0.3631 -0.49528,-0.027 -1.86226,-2.0962 -1.72277,-2.607 z m 34.84031,58.3726 c -0.20137,-0.834 0.10383,-1.5849 0.63323,-1.5566 0.23247,0.012 0.73334,0.5561 1.12294,1.207 0.77139,1.2901 0.79625,2.5655 0.0476,2.5261 -0.53898,-0.028 -1.5946,-1.2993 -1.80712,-2.1746 z m -57.3829,-97.76841 c -0.0323,-1.43137 0.52374,-1.70486 2.04605,-1.0051 1.10786,0.50855 1.57801,1.00884 2.71489,2.88942 1.07464,1.79174 1.3077,2.40919 1.06084,2.90442 -0.28566,0.57246 -0.38151,0.6221 -1.04853,0.54082 -1.18756,-0.14255 -2.3313,-1.0202 -3.58065,-2.74489 -0.74615,-1.02494 -1.17695,-1.97071 -1.19136,-2.58422 z m 20.29131,34.31501 c -0.12089,-0.7677 0.79421,-1.0188 1.45347,-0.3992 0.88066,0.8224 1.59223,2.5199 1.20569,2.868 -0.65804,0.5948 -2.4354,-1.0562 -2.65916,-2.4688 z m 40.89694,67.3238 c 0.0236,-1.5926 2.04957,-0.759 2.64858,1.0902 0.19021,0.5888 0.24198,1.3729 0.11355,1.7434 -0.20209,0.5842 -0.30178,0.6557 -0.75363,0.5438 -0.64927,-0.1621 -2.02177,-2.4701 -2.0178,-3.3709 z m -6.5721,-11.6692 c 0.0433,-1.0589 0.78353,-0.9035 1.50535,0.3152 0.65652,1.0936 0.70515,2.1009 0.11403,2.0692 -0.52831,-0.028 -1.64867,-1.6757 -1.61862,-2.3849 z m -36.8525,-62.07031 c 0.0218,-1.2311 2.0171,-0.55422 2.95475,1.00255 0.47942,0.80316 0.54557,2.06496 0.11511,2.31216 -0.75175,0.4337 -3.09226,-2.0939 -3.06986,-3.31471 z m 48.30414,80.36801 c -0.43625,-1.2001 -0.18315,-2.5527 0.46887,-2.518 0.62813,0.034 1.79348,1.4794 2.24921,2.7922 0.45223,1.3016 0.21916,2.6303 -0.45469,2.5945 -0.57281,-0.031 -1.79853,-1.5841 -2.26339,-2.8687 z m -40.17129,-67.8134 c 0.41016,-0.526 0.73511,-0.386 1.53325,0.627 0.77536,0.9897 0.78518,1.8373 0.0246,1.9426 -0.57803,0.084 -1.91159,-2.1164 -1.54312,-2.5779 z m 32.15825,52.9949 c -0.16179,-1.606 0.85581,-1.4731 1.88433,0.246 0.58529,0.9759 0.49206,2.3848 -0.15444,2.3504 -0.54171,-0.029 -1.63598,-1.6712 -1.72989,-2.5964 z m -43.13503,-72.80942 c 0.0137,-0.93337 0.76528,-1.07951 1.81983,-0.35429 1.71102,1.17822 2.80393,3.8751 1.70938,4.22249 -1.12822,0.35733 -3.55274,-2.29946 -3.52921,-3.8682 z m 9.30662,14.92292 c 0.21208,-0.7721 1.06006,-0.6091 1.90093,0.383 0.86323,1.0123 0.9746,2.5127 0.18786,2.4712 -0.68411,-0.036 -2.26835,-2.201 -2.088,-2.8546 z m 46.89737,77.954 c -0.0533,-1.4494 0.17737,-1.8442 1.00879,-1.7273 0.86175,0.1221 2.68553,3.14 2.78544,4.5652 0.0714,1.2948 -0.55518,1.9405 -1.41687,1.4586 -0.93032,-0.5205 -2.31165,-3.0435 -2.35814,-4.3078 z m -16.36615,-27.4958 c 0.27755,-0.5531 0.67102,-0.5465 1.25338,0.02 0.70328,0.6839 0.95395,2.0115 0.46256,2.4572 -0.37031,0.3336 -1.96809,-1.9727 -1.71551,-2.4771 z m -25.56008,-43.7431 c 0.40983,-0.5256 0.73428,-0.3868 1.53298,0.627 0.84022,1.0686 0.79896,2.0662 -0.079,1.8401 -0.69232,-0.1797 -1.78798,-2.0386 -1.47051,-2.4577 z m 32.71015,54.6568 c 0.0259,-1.724 1.84408,-0.6665 2.53698,1.4758 0.4397,1.363 0.22111,2.1258 -0.54942,1.9104 -0.63711,-0.1777 -2.0027,-2.4997 -1.97527,-3.3931 z m -50.43267,-84.7348 c -0.0402,-0.25045 0.14579,-0.58441 0.41282,-0.73762 0.80785,-0.46496 2.41141,0.59337 3.47758,2.29468 1.57077,2.5007 0.76865,4.03421 -1.3102,2.50932 -0.78919,-0.57879 -2.44037,-3.18158 -2.58063,-4.06615 z m 66.16096,110.2395 c -0.67032,-1.6799 -0.61634,-3.3326 0.12168,-3.7564 0.5393,-0.3161 1.89811,0.5835 2.56544,1.6928 1.065,1.7822 1.49125,5.1326 0.70078,5.5866 -0.87536,0.5029 -2.42615,-1.1095 -3.3879,-3.523 z m -55.11096,-93.02673 c 0.30351,-0.49531 0.4484,-0.52423 1.02762,-0.20073 0.84567,0.47316 2.15346,2.63806 1.98103,3.30666 -0.22884,0.9472 -1.23909,0.4945 -2.32749,-1.0433 -0.8253,-1.1637 -0.96101,-1.6054 -0.69326,-2.05563 z m 35.66103,60.12053 c -0.10469,-0.3612 -0.0509,-0.8861 0.11947,-1.1667 0.2498,-0.4101 0.42015,-0.4266 0.86638,-0.073 0.61923,0.4884 1.59524,2.5778 1.37224,2.9995 -0.39667,0.7928 -1.95085,-0.3641 -2.35964,-1.7583 z m -3.753,-7.0362 c -0.14675,-0.9002 0.7913,-0.7451 1.50019,0.2495 0.81755,1.1465 0.77648,2.1069 -0.0834,1.8848 -0.52408,-0.1348 -1.27826,-1.2734 -1.41591,-2.1348 z m -26.30137,-44.8795 c 0.15575,-0.6446 0.53716,-0.5958 1.48333,0.1904 0.81676,0.6762 1.3712,2.0679 1.0161,2.5252 -0.60411,0.7745 -2.77274,-1.5837 -2.49824,-2.7163 z m 4.18956,7.2414 c -0.0711,-0.5828 0.35386,-0.8494 0.88331,-0.5565 1.11919,0.62 1.68007,2.8089 0.72788,2.7485 -0.35454,-0.019 -1.545,-1.6339 -1.61108,-2.1933 z m 34.09458,56.97 c -0.20018,-0.7983 0.39728,-1.6901 1.0191,-1.5168 0.67353,0.1874 2.16713,2.7587 2.21497,3.8163 0.0475,1.024 -0.59513,1.5211 -1.28967,0.9975 -0.53056,-0.3952 -1.7208,-2.4246 -1.92517,-3.3082 z m -58.84324,-99.26044 c 0.0864,-1.79898 2.46303,-0.98847 4.29821,1.46582 1.29906,1.73386 1.63529,3.16618 0.88832,3.73092 -0.85115,0.64494 -2.39499,-0.37936 -3.88985,-2.57996 -0.7331,-1.07352 -1.30005,-2.2607 -1.29636,-2.61697 z m 12.7098,20.40013 c 0.008,-0.61368 0.0896,-0.69475 0.67502,-0.66431 1.56637,0.0832 3.79691,3.4187 2.85527,4.27254 -0.91082,0.82707 -3.55494,-1.87405 -3.53172,-3.60672 z m 33.41071,55.39141 c -0.21854,-1.3785 1.65877,-0.2298 1.97067,1.2062 0.18774,0.8526 -0.13517,1.2174 -0.76581,0.8681 -0.44497,-0.2454 -1.09283,-1.3614 -1.19084,-2.0821 z m 8.30951,13.538 c -0.0451,-1.7256 1.25626,-1.1021 2.254,1.0806 0.66956,1.4635 0.50286,2.4452 -0.37358,2.2002 -0.64889,-0.1815 -1.85291,-2.2851 -1.88141,-3.2802 z m -26.33348,-44.5891 c 0.0911,-0.3867 0.27047,-0.4014 0.86943,-0.07 0.71139,0.3953 1.39889,1.7774 1.1396,2.2954 -0.4095,0.8174 -2.25047,-1.2236 -2.00786,-2.2259 z m 22.05499,36.8531 c 0.21177,-0.8725 1.01714,-0.5853 1.73701,0.6299 0.77197,1.2911 0.78255,2.0914 0.0447,2.1943 -0.53398,0.074 -1.94322,-2.1597 -1.78288,-2.8235 z m -30.66064,-52.1056 c 0.47578,-0.6107 1.15516,-0.3321 2.11667,0.8652 0.60589,0.7509 0.90599,1.4199 0.82025,1.9026 -0.10995,0.7084 -0.14031,0.7312 -0.80314,0.5948 -0.83204,-0.1694 -2.53576,-2.8508 -2.13904,-3.3614 z m 4.87289,8.2316 c 0.2732,-1.0421 1.58316,-0.067 2.38586,1.777 0.37024,0.8564 0.19521,1.1799 -0.56181,1.0264 -0.78389,-0.1598 -2.01928,-2.0592 -1.82459,-2.8031 z m 39.73547,66.1768 c -0.10486,-2.2668 1.66916,-1.735 2.92097,0.8759 0.84125,1.7541 0.93971,3.1796 0.24776,3.5769 -0.2238,0.1244 -0.58575,0.1327 -0.8065,0.01 -0.68594,-0.3799 -2.31587,-3.4601 -2.36349,-4.4625 z m -19.15759,-32.291 c -0.21319,-1.3461 1.56165,-0.2255 1.91408,1.209 0.21513,0.8647 -0.0745,1.2165 -0.70954,0.8649 -0.4445,-0.245 -1.09246,-1.3612 -1.19069,-2.0818 z m -34.63103,-58.69453 c -0.19064,-1.92164 2.06077,-1.14637 3.52807,1.20958 1.07454,1.70514 1.25545,2.60248 0.63593,2.95831 -0.22987,0.12787 -0.7628,0.0842 -1.18391,-0.10721 -0.89989,-0.40777 -2.88563,-3.1144 -2.98009,-4.06068 z m 20.86918,34.78183 c 0.3663,-0.4671 0.88231,-0.1753 1.49372,0.8465 0.31059,0.5175 0.52635,1.0988 0.48519,1.2883 -0.16651,0.7276 -0.86417,0.4098 -1.52386,-0.6919 -0.37629,-0.6305 -0.5816,-1.2797 -0.45247,-1.4442 z m 12.30083,19.6806 c 0.007,-0.5826 0.0992,-0.6881 0.50334,-0.5764 0.6522,0.1818 1.5502,1.7061 1.39797,2.3373 -0.32118,1.2239 -1.9057,-0.2645 -1.8861,-1.7706 z m 5.74141,9.5931 c 0.0149,-1.1087 0.97883,-0.8242 1.78599,0.5248 0.75107,1.2535 0.59406,2.286 -0.30827,2.0341 -0.6388,-0.1786 -1.48996,-1.6532 -1.47738,-2.5591 z m 9.58017,16.3101 c -0.1999,-0.7986 0.39809,-1.6907 1.01992,-1.5171 0.55221,0.1554 2.0384,2.6132 2.15702,3.6045 0.12071,0.871 -0.72257,1.4971 -1.36405,1.0135 -0.53553,-0.4028 -1.60462,-2.2098 -1.84487,-3.0823 z m -30.72916,-52.0364 c -0.14279,-1.2422 1.31383,-0.6301 2.17864,0.9158 0.42459,0.804 0.30766,1.7344 -0.24739,1.7051 -0.36673,-0.019 -1.8666,-2.0514 -1.93168,-2.6207 z m 6.06924,9.8959 c 0.14664,-0.1846 0.42437,-0.2521 0.62955,-0.1344 0.5879,0.3272 1.42702,2.3872 1.04573,2.5314 -0.49332,0.1875 -2.00258,-1.9744 -1.67478,-2.3961 z m 19.75526,32.9211 c 0.0106,-0.7578 0.4507,-1.0925 1.01937,-0.7788 0.64677,0.3589 1.63606,2.2223 1.64211,3.0918 0.005,0.7743 -0.0185,0.7966 -0.70956,0.659 -0.79592,-0.1605 -1.96986,-1.9472 -1.95104,-2.9736 z m -35.72259,-60.6639 c 0.23716,-0.69045 0.27564,-0.69713 1.23323,-0.21646 1.13167,0.56837 2.25034,2.24697 2.25856,3.39202 0.007,0.71804 -0.0515,0.77644 -0.73233,0.74124 -1.06925,-0.057 -3.09852,-2.93314 -2.76016,-3.91532 z m 5.80748,10.254 c -0.006,-0.2323 -0.0232,-0.5912 -0.0429,-0.7944 -0.0572,-0.6898 1.10717,-0.4454 1.87266,0.3907 1.23604,1.3508 1.32375,3.549 0.11471,2.879 -0.6236,-0.3443 -1.93326,-2.0132 -1.94519,-2.4749 z m 12.95333,21.3019 c 0.43515,-0.5573 0.80011,-0.373 1.4678,0.7422 0.34767,0.5792 0.57191,1.168 0.5035,1.3058 -0.30016,0.6001 -1.04225,0.2942 -1.61689,-0.6665 -0.34201,-0.5717 -0.5023,-1.1928 -0.35646,-1.3804 z m 2.53308,3.9797 c 0.20435,-0.6362 0.25951,-0.6379 0.9097,-0.027 1.21162,1.1378 1.22784,3.0651 0.0185,2.1538 -0.8072,-0.6079 -1.15917,-1.4116 -0.92892,-2.126 z m 2.07213,4.028 c 0.27687,-0.5521 0.85572,-0.3112 1.38517,0.5731 0.64178,1.0722 0.71705,1.8057 0.19485,1.8789 -0.414,0.058 -1.77696,-2.0582 -1.5806,-2.4517 z m 28.527,47.3249 c -0.11309,-0.5848 -0.0251,-1.3856 0.19619,-1.7813 0.38116,-0.6816 0.4361,-0.707 1.04259,-0.4838 0.84946,0.3138 2.75987,3.5464 2.89346,4.9281 0.14245,1.33 -0.25366,2.1116 -1.04912,2.0697 -0.69412,-0.037 -2.81654,-3.2734 -3.09722,-4.7252 z m -38.26174,-65.3691 c 0.0436,-1.1457 1.01496,-0.8315 1.87581,0.6066 0.77642,1.2963 0.77917,1.8753 0.006,1.8353 -0.67486,-0.036 -1.91264,-1.6422 -1.88306,-2.4411 z m 16.10342,26.9078 c 0.45598,-0.5862 0.86328,-0.3529 1.6331,0.9335 0.40959,0.6828 0.68183,1.3657 0.60569,1.5167 -0.33068,0.6597 -1.06298,0.3028 -1.7563,-0.856 -0.41284,-0.6887 -0.62859,-1.4066 -0.48399,-1.5933 z m -40.25048,-67.94571 c 0.0799,-1.75935 2.21847,-0.91173 3.92987,1.55804 1.86125,2.68032 1.63197,4.29555 -0.47792,3.40689 -1.01421,-0.42672 -3.49645,-3.99712 -3.45162,-4.96511 z m 38.38475,63.37271 c 0.2258,-0.9956 0.8638,-0.7448 1.70979,0.6695 0.73623,1.2268 0.73628,2.0667 0.006,2.0271 -0.52232,-0.028 -1.84804,-2.1148 -1.71643,-2.6962 z m 6.69144,11.1829 c 0.0108,-0.7575 0.45018,-1.0922 1.01968,-0.776 0.64729,0.3582 1.63601,2.222 1.64403,3.0904 0.004,0.7745 -0.019,0.7965 -0.70964,0.659 -0.7959,-0.1605 -1.96931,-1.9474 -1.95082,-2.9732 z m 11.15134,18.4361 c -0.13967,-3.0183 3.18369,-0.4885 3.51708,2.6772 0.12976,1.2293 -0.59755,2.0015 -1.34972,1.4348 -0.81626,-0.6145 -2.11904,-3.0903 -2.16823,-4.1115 z m -35.54467,-60.0007 c 0.0129,-0.7024 0.0301,-0.7171 0.73069,-0.5783 1.13929,0.2276 2.70123,3.1861 1.91897,3.6354 -0.80765,0.4654 -2.67215,-1.6858 -2.64944,-3.056 z m 6.89963,11.6179 c 0.40888,-0.5253 0.73305,-0.3849 1.56927,0.6361 0.85862,1.0526 0.91558,2.4827 0.0894,2.2525 -0.66018,-0.1835 -1.97887,-2.4782 -1.65798,-2.889 z m 22.90874,37.9447 c 0.1075,-1.5788 0.98488,-1.3014 2.16113,0.6836 1.72497,2.8794 0.58555,4.3981 -1.2757,1.7134 -0.63657,-0.9153 -0.93089,-1.7193 -0.88543,-2.397 z m -41.49554,-69.67201 c 0.0747,-1.5264 1.46519,-1.17226 2.98333,0.75843 1.01048,1.28533 1.51543,3.16703 0.94018,3.49736 -0.89121,0.51133 -3.99244,-2.85066 -3.92351,-4.25579 z m 6.99389,11.79041 c -0.52111,-1.1607 -0.24427,-1.76309 0.71506,-1.5719 0.82294,0.1636 2.58054,2.8514 2.38893,3.6492 -0.29232,1.2065 -2.21444,-0.081 -3.10235,-2.0784 z m 14.77245,24.5949 c 0.2054,-0.8461 1.01726,-0.5854 1.67368,0.5229 0.77209,1.2888 0.70889,2.201 -0.12334,1.9851 -0.63778,-0.1657 -1.7014,-1.8865 -1.55358,-2.5062 z m 2.94029,4.9115 c -0.11588,-0.8823 0.4739,-1.0816 1.22214,-0.4145 0.75018,0.6664 1.21659,2.2735 0.7218,2.4779 -0.38057,0.1567 -1.22323,-0.3802 -1.60911,-1.0243 -0.13237,-0.238 -0.28906,-0.7029 -0.33604,-1.0395 z m 2.57861,4.1857 c 0.23106,-0.8793 1.13832,-0.3968 1.74599,0.9283 0.58478,1.2726 0.55702,1.636 -0.13117,1.7328 -0.54403,0.077 -1.79315,-1.9807 -1.59872,-2.6703 z m 7.21933,10.2853 c 0.2127,-0.656 0.25087,-0.6658 0.98783,-0.263 0.76703,0.4191 1.83983,2.4868 1.66537,3.2279 -0.0628,0.2768 -0.28708,0.3474 -0.76685,0.2497 -0.90531,-0.1841 -2.17088,-2.339 -1.87492,-3.2202 z m -18.60666,-31.4938 c 0.0967,-0.398 0.2332,-0.4894 0.69345,-0.4647 0.64666,0.035 2.06578,2.1458 2.04357,3.0394 -0.0157,0.5742 -0.025,0.5796 -0.7248,0.4501 -0.8113,-0.1622 -2.19074,-2.2371 -2.00631,-3.0103 z m 37.38914,61.6645 c -0.25495,-0.7815 -0.36011,-1.8062 -0.2378,-2.2733 0.21268,-0.8137 0.25109,-0.8436 0.9069,-0.7112 0.82332,0.168 2.79691,3.3002 2.99561,4.7518 0.17335,1.2713 -0.29521,2.0762 -1.04314,1.7933 -0.87935,-0.3327 -2.12677,-2.0275 -2.62187,-3.5621 z m -33.44271,-56.352 c -0.15186,-0.7998 0.19432,-1.317 0.77166,-1.1558 0.55728,0.1558 1.9532,2.296 1.95742,2.9987 0.007,1.5376 -2.39958,-0.088 -2.72864,-1.8432 z m 12.58978,20.5043 c 0.2191,-0.6743 0.22847,-0.6791 0.75517,-0.3983 0.80798,0.4171 1.99357,2.6624 1.7074,3.2322 -0.20042,0.4061 -0.34997,0.4782 -0.75303,0.364 -0.78185,-0.2185 -1.95463,-2.4123 -1.70788,-3.1821 z m 7.61734,13.0227 c 0.007,-0.358 0.16057,-0.736 0.34345,-0.841 0.52556,-0.3084 1.32703,0.5139 2.14708,2.1991 0.79428,1.6288 0.68449,2.6905 -0.24868,2.4296 -0.63094,-0.176 -2.2547,-2.9226 -2.26057,-3.7771 z m -28.21459,-47.9302 c 0.013,-0.9572 0.75227,-0.8747 1.91132,0.2135 1.08238,1.0153 1.76586,3.0879 1.13597,3.4495 -0.84172,0.4843 -3.06741,-2.191 -3.04729,-3.663 z m 34.40143,57.394 c -0.021,-0.8553 0.61693,-1.3935 1.24187,-1.0476 1.23137,0.6828 2.81652,4.7967 2.04979,5.2368 -0.91881,0.5271 -3.24536,-2.4343 -3.29176,-4.1894 z m -47.81783,-80.50942 c 0.0189,-1.06726 0.506,-1.34557 1.48402,-0.85105 2.14085,1.0838 4.15033,4.95061 2.93594,5.64782 -1.07929,0.62167 -4.45239,-3.0402 -4.4209,-4.79897 z m 25.03328,41.91862 c 0.3174,-1.3103 2.28024,0.2502 2.54144,2.02 0.15069,1.027 0.11657,1.0885 -0.5421,0.9544 -0.77982,-0.1591 -2.17885,-2.2389 -2.00053,-2.9738 z m 3.40505,5.8768 c -0.24852,-1.6604 0.96238,-1.5669 2.00277,0.1542 0.70872,1.1874 0.6702,2.5827 -0.0759,2.3651 -0.51124,-0.1485 -1.83065,-1.8736 -1.92555,-2.5201 z m 2.91585,4.619 c 0.52866,-0.6769 1.09588,-0.3828 1.91262,0.9935 0.93686,1.5722 0.96275,2.5365 0.0677,2.3042 -0.67525,-0.1758 -2.3019,-2.8846 -1.977,-3.2995 z m -23.54482,-40.38579 c 0.30632,-0.50352 0.47923,-0.5159 1.3038,-0.0983 1.09394,0.55351 2.59515,2.86809 2.60727,4.01378 0.007,0.73483 -0.0364,0.77588 -0.77292,0.73748 -1.12963,-0.0595 -3.65534,-3.80581 -3.13986,-4.65307 z m 31.85814,52.92089 c -0.0971,-0.9204 0.69413,-1.2993 1.50641,-0.722 1.30836,0.9305 1.99062,4.0495 0.87464,3.989 -0.58376,-0.03 -2.28719,-2.3679 -2.38225,-3.2662 z m -21.54141,-36.6223 c -0.11472,-0.7042 0.78135,-1.0428 1.45461,-0.5485 0.9455,0.6931 2.02132,2.8523 1.75321,3.5291 -0.21698,0.5508 -0.31225,0.5725 -1.00916,0.228 -0.74572,-0.3685 -2.04928,-2.2721 -2.19788,-3.2083 z m 19.16049,30.322 c -0.19759,-1.0285 -0.0577,-1.3666 0.55196,-1.334 1.30458,0.069 3.09946,3.9658 1.98885,4.3189 -0.82704,0.2632 -2.23314,-1.3894 -2.54081,-2.9849 z m 8.91448,14.895 c -0.17737,-0.9243 0.0907,-1.7464 0.56341,-1.7216 1.08938,0.058 2.71814,2.7021 2.7359,4.4417 0.0237,2.2601 -2.78554,-0.055 -3.29974,-2.7199 z m -23.53942,-39.8112 c -0.0711,-0.583 0.67527,-1.0416 1.21209,-0.7441 0.63097,0.3488 2.10515,3.0129 1.96212,3.568 -0.0966,0.3987 -0.23283,0.4895 -0.69497,0.4655 -0.58108,-0.031 -2.38281,-2.4082 -2.48783,-3.2839 z m 30.82682,51.2795 c -0.3499,-1.2722 -0.26696,-2.3849 0.19607,-2.6507 0.99363,-0.5711 3.39,2.942 3.47191,5.0868 0.0371,0.9822 -0.55854,1.5418 -1.2401,1.165 -0.7494,-0.4161 -2.10382,-2.4256 -2.42577,-3.6024 z M 209.5126,999.4719 c 0.0383,-0.65105 0.92055,-0.91237 1.54377,-0.45759 0.98553,0.71978 2.59747,3.65769 2.31536,4.22079 -0.50025,0.9978 -1.33267,0.5321 -2.6351,-1.4762 -0.68558,-1.0543 -1.24314,-2.07944 -1.22299,-2.28758 z m 20.7862,34.39 c -0.19341,-1.9165 1.8737,-0.9942 2.67154,1.1916 0.45313,1.2479 0.29354,1.9142 -0.45377,1.8741 -0.63651,-0.034 -2.11832,-2.0824 -2.21517,-3.0671 z m -27.1657,-46.24696 c -0.0174,-0.54078 0.12095,-1.05663 0.3097,-1.14719 1.66255,-0.79886 5.40833,4.72963 3.81971,5.6418 -1.00227,0.5746 -4.07249,-2.76522 -4.13092,-4.49377 z m 19.79071,33.26706 c 0.35342,-1.4598 3.09868,1.1424 3.10028,2.9375 -0.001,0.8261 -0.0272,0.8525 -0.71475,0.715 -0.82032,-0.1657 -2.57725,-2.8558 -2.38556,-3.6516 z m 3.85231,6.4397 c 0.0379,-0.7738 0.47202,-1.1035 1.03916,-0.7898 1.41221,0.7826 2.55626,4.636 1.27347,4.2561 -0.65664,-0.1917 -2.34722,-2.7263 -2.31574,-3.4666 z m 13.1412,20.464 c -0.4631,-2.4004 1.18429,-1.9694 2.54131,0.6645 0.69415,1.3497 0.85912,2.0229 0.61348,2.5126 -0.31299,0.6246 -0.39197,0.6276 -1.18425,0.047 -0.96179,-0.7063 -1.72561,-1.9563 -1.98046,-3.2182 z m -24.76973,-42.2519 c -0.045,-1.7418 1.44119,-1.1619 2.78545,1.0841 1.36822,2.2838 0.90817,3.6225 -0.78567,2.2896 -1.12333,-0.8842 -1.9722,-2.3158 -2.01472,-3.3651 z m 32.44077,52.8215 c -0.63483,-1.6953 -0.64687,-2.3468 -0.0444,-2.6926 0.63423,-0.3689 1.5151,0.3742 2.52606,2.1259 0.96651,1.6967 1.22619,3.4437 0.54596,3.8345 -0.40438,0.2409 -0.81514,-0.046 -2.15147,-1.4824 -0.19141,-0.2042 -0.598,-1.0011 -0.87798,-1.7844 z m -27.10974,-45.797 c -0.4168,-1.1671 -0.10969,-1.864 0.74819,-1.6892 0.67771,0.1381 2.49435,2.8344 2.66183,3.9497 0.2951,1.9744 -2.57104,0.074 -3.40904,-2.261 z m 16.44326,27.2231 c 0.0128,-0.8623 0.71503,-1.0846 1.55455,-0.4925 0.67797,0.478 1.86088,2.8311 1.86946,3.7035 0.001,0.7 -0.74637,1.046 -1.32116,0.6132 -0.73124,-0.5533 -2.10985,-3.0621 -2.09721,-3.826 z m -27.16376,-45.95617 c -0.11903,-1.16628 0.77693,-1.48666 1.8331,-0.65516 1.77056,1.39315 3.19107,4.63462 2.26595,5.16595 -0.84734,0.48739 -3.93616,-2.91081 -4.09905,-4.51079 z m 15.42157,24.95807 c -0.1808,-1.0861 -0.0358,-1.3769 0.67245,-1.3396 0.74355,0.039 3.0508,3.8478 2.73994,4.489 -0.17675,0.3529 -0.38323,0.4108 -0.85839,0.2336 -0.84884,-0.3137 -2.3619,-2.3348 -2.54075,-3.3918 z m 8.25677,13.7972 c -0.12909,-0.9563 0.70155,-1.2821 1.574,-0.6165 0.93122,0.7112 2.06339,3.3101 1.7696,4.0591 -0.19062,0.4833 -0.32405,0.5075 -0.98964,0.1777 -0.82545,-0.4084 -2.20575,-2.5303 -2.35336,-3.6195 z m -3.94284,-7.3912 c 0.0396,-0.994 0.57697,-1.1101 1.59847,-0.3457 1.61225,1.207 2.46514,4.5053 1.14674,4.4359 -0.65943,-0.035 -2.78197,-3.1963 -2.74596,-4.0897 z m 14.95897,23.2599 c -0.14061,-1.3502 0.32642,-1.7694 1.30729,-1.1728 1.55873,0.9472 3.03854,4.7228 2.16224,5.518 -0.83225,0.7551 -3.25302,-2.2753 -3.46953,-4.3452 z m -28.35294,-47.9155 c -0.18255,-1.89384 1.9057,-1.12982 3.27597,1.2136 1.27197,2.2126 1.15427,3.5864 -0.29657,3.0507 -0.87459,-0.3231 -2.87504,-3.1859 -2.97967,-4.264 z m 24.92977,39.3448 c -0.15799,-1.0399 0.39938,-1.6413 1.14055,-1.2303 1.57499,0.8726 3.22322,4.7302 2.35491,5.5127 -0.80839,0.7289 -3.17252,-2.1675 -3.49546,-4.2824 z m -18.97734,-32.2088 c -0.0459,-0.3554 0.0708,-0.7867 0.26178,-0.9602 0.57471,-0.523 1.61983,0.3245 2.76701,2.2412 1.03712,1.7346 1.24271,2.8252 0.59414,3.1974 -0.79198,0.4567 -3.39249,-2.7586 -3.62293,-4.4784 z m 5.47339,7.4924 c -0.23523,-1.939 1.43469,-1.2047 2.92489,1.2853 1.04016,1.7377 1.24459,2.8289 0.59646,3.201 -0.84745,0.4874 -3.29551,-2.6322 -3.52135,-4.4863 z m 5.25479,8.8695 c -0.58686,-1.9928 -0.085,-2.5547 1.33471,-1.4955 1.95701,1.4597 3.08405,5.9901 1.22646,4.9233 -0.97877,-0.5613 -2.19722,-2.1914 -2.56247,-3.427 z m 4.25149,7.1045 c 0.0109,-0.8184 0.7274,-1.1014 1.45001,-0.5732 0.83601,0.6126 2.1095,2.8102 2.25775,3.9032 0.15156,1.1081 -0.4841,1.6948 -1.22787,1.1345 -0.74384,-0.5605 -2.49496,-3.7051 -2.48286,-4.4633 z"
             style="fill:#000000;fill-opacity:1;stroke:none;stroke-width:0.30662552" />
          <text
             id="text2240-0-2"
             y="895.70325"
             x="309.616"
             style="font-style:normal;font-variant:normal;font-weight:normal;font-stretch:normal;font-size:43.37759018px;line-height:0;font-family:LeviBrush;-inkscape-font-specification:LeviBrush;text-align:center;letter-spacing:0px;word-spacing:0px;text-anchor:middle;fill:#ffcb00;fill-opacity:1;stroke:none;stroke-width:0.75525254;stroke-miterlimit:4;stroke-dasharray:none;stroke-opacity:1"
             xml:space="preserve"
             transform="matrix(0.81126339,-0.1103028,0.17907199,1.2082979,0,0)"><tspan
               style="font-style:normal;font-variant:normal;font-weight:normal;font-stretch:normal;font-family:LeviReBrushed;-inkscape-font-specification:LeviReBrushed;fill:#ffcb00;fill-opacity:1;stroke:none;stroke-width:0.75525254;stroke-miterlimit:4;stroke-dasharray:none;stroke-opacity:1"
               y="895.70325"
               x="309.616"
               id="tspan2238-6-9"
               sodipodi:role="line">digitales</tspan></text>
          <text
             transform="scale(0.70448427,1.4194781)"
             xml:space="preserve"
             style="font-style:normal;font-variant:normal;font-weight:normal;font-stretch:normal;font-size:46.99438858px;line-height:0;font-family:LeviBrush;-inkscape-font-specification:LeviBrush;text-align:center;letter-spacing:0px;word-spacing:0px;text-anchor:middle;fill:#000000;fill-opacity:1;stroke:#ffffff;stroke-width:2.00306988;stroke-miterlimit:4;stroke-dasharray:none;stroke-opacity:1"
             x="700.71021"
             y="738.6922"
             id="text2244-2-1"><tspan
               sodipodi:role="line"
               id="tspan2242-6-2"
               x="700.71021"
               y="738.6922"
               style="font-style:normal;font-variant:normal;font-weight:normal;font-stretch:normal;font-family:Audiowide;-inkscape-font-specification:Audiowide;fill:#000000;fill-opacity:1;stroke:#ffffff;stroke-width:2.00306988;stroke-miterlimit:4;stroke-dasharray:none;stroke-opacity:1">.es</tspan></text>
          <text
             id="text2248-1-7"
             y="749.92004"
             x="380.12155"
             style="font-style:normal;font-variant:normal;font-weight:normal;font-stretch:normal;font-size:47.83642197px;line-height:0;font-family:LeviBrush;-inkscape-font-specification:LeviBrush;text-align:center;letter-spacing:0px;word-spacing:0px;text-anchor:middle;fill:#000000;fill-opacity:1;stroke:#ffffff;stroke-width:2.22858572;stroke-miterlimit:4;stroke-dasharray:none;stroke-opacity:1"
             xml:space="preserve"
             transform="scale(0.71498957,1.3986218)"><tspan
               style="font-style:normal;font-variant:normal;font-weight:normal;font-stretch:normal;font-family:Audiowide;-inkscape-font-specification:Audiowide;fill:#000000;fill-opacity:1;stroke:#ffffff;stroke-width:2.22858572;stroke-miterlimit:4;stroke-dasharray:none;stroke-opacity:1"
               y="749.92004"
               x="380.12155"
               id="tspan2246-8-0"
               sodipodi:role="line">puertas</tspan></text>
        </g>
      </g>
    </g>
  </g>
</svg>
